<svg width="18" height="21" viewBox="0 0 18 21" fill="none" xmlns="http://www.w3.org/2000/svg">
<path d="M16.5148 12C17.335 12 18.0125 12.6694 17.8777 13.4786C17.6203 15.0242 16.962 16.485 15.9571 17.7095C14.6362 19.3191 12.798 20.4209 10.7558 20.8271C8.71362 21.2333 6.59376 20.9188 4.75743 19.9373C2.9211 18.9558 1.48191 17.3679 0.685084 15.4442C-0.111738 13.5205 -0.216893 11.38 0.387537 9.38744C0.991967 7.3949 2.26858 5.67358 3.99987 4.51677C5.73115 3.35997 7.80998 2.83925 9.88215 3.04334C11.4586 3.1986 12.957 3.76607 14.232 4.67699C14.8994 5.15384 14.8938 6.10624 14.3137 6.68627V6.68627C13.7337 7.26629 12.7991 7.2466 12.0951 6.82553C11.3367 6.3719 10.4825 6.08733 9.59099 5.99953C8.20275 5.8628 6.81005 6.21165 5.65019 6.98665C4.49032 7.76165 3.63506 8.91484 3.23012 10.2497C2.82519 11.5846 2.89564 13.0186 3.42946 14.3074C3.96329 15.5962 4.92747 16.66 6.15771 17.3175C7.38795 17.9751 8.80814 18.1858 10.1763 17.9136C11.5445 17.6415 12.7759 16.9034 13.6609 15.8251C14.2292 15.1326 14.632 14.3273 14.8475 13.4703C15.0475 12.6748 15.6945 12 16.5148 12V12Z" fill="white"/>
<path d="M9.23652 2.42422C8.81613 1.92619 8.87907 1.18167 9.3771 0.761284V0.761284C9.87512 0.340897 10.6196 0.403836 11.04 0.901861L13.9903 4.39697C14.4107 4.895 14.3477 5.63952 13.8497 6.0599V6.0599C13.3517 6.48029 12.6072 6.41735 12.1868 5.91932L9.23652 2.42422Z" fill="white"/>
<path d="M8.77237 6.2891C8.1662 6.52841 7.8688 7.21381 8.10811 7.81998V7.81998C8.34742 8.42614 9.03282 8.72354 9.63898 8.48423L13.8934 6.80463C14.4995 6.56532 14.7969 5.87993 14.5576 5.27376V5.27376C14.3183 4.6676 13.6329 4.3702 13.0268 4.60951L8.77237 6.2891Z" fill="white"/>
</svg>
