<svg width="13" height="13" viewBox="0 0 13 13" fill="none" xmlns="http://www.w3.org/2000/svg">
<path d="M11 5.5C11 8.53757 8.53757 11 5.5 11C2.46243 11 0 8.53757 0 5.5C0 2.46243 2.46243 0 5.5 0C8.53757 0 11 2.46243 11 5.5ZM1.48088 5.5C1.48088 7.7197 3.2803 9.51912 5.5 9.51912C7.7197 9.51912 9.51912 7.7197 9.51912 5.5C9.51912 3.2803 7.7197 1.48088 5.5 1.48088C3.2803 1.48088 1.48088 3.2803 1.48088 5.5Z" fill="#EFF5F5"/>
<rect x="8" y="9.0354" width="1.46429" height="5.03607" rx="0.732143" transform="rotate(-45 8 9.0354)" fill="#EFF5F5"/>
</svg>
