<svg width="13" height="13" viewBox="0 0 13 13" fill="none" xmlns="http://www.w3.org/2000/svg">
<path d="M11 5.5C11 8.53757 8.53757 11 5.5 11C2.46243 11 0 8.53757 0 5.5C0 2.46243 2.46243 0 5.5 0C8.53757 0 11 2.46243 11 5.5ZM1.04965 5.5C1.04965 7.95786 3.04214 9.95035 5.5 9.95035C7.95786 9.95035 9.95035 7.95786 9.95035 5.5C9.95035 3.04214 7.95786 1.04965 5.5 1.04965C3.04214 1.04965 1.04965 3.04214 1.04965 5.5Z" fill="#EFF5F5"/>
<rect x="8.58447" y="9.43298" width="1.2" height="4.43764" rx="0.6" transform="rotate(-45 8.58447 9.43298)" fill="#EFF5F5"/>
</svg>
