<svg width="57" height="57" viewBox="0 0 57 57" fill="none" xmlns="http://www.w3.org/2000/svg">
<rect x="0.5" y="0.5" width="56" height="56" rx="4.5" stroke="white"/>
<rect x="11.5" y="10.5" width="27" height="9" rx="0.5" fill="white" stroke="white"/>
<rect x="39.05" y="10.05" width="7.9" height="9.9" rx="0.95" fill="white" stroke="#636267" stroke-width="0.1"/>
<circle cx="29" cy="40" r="6" fill="white"/>
<path d="M19.0257 17.025C18.909 17.025 18.814 16.99 18.7407 16.92C18.6707 16.85 18.6357 16.7567 18.6357 16.64V14.11H17.8257C17.579 14.11 17.4557 14.0033 17.4557 13.79C17.4557 13.58 17.579 13.475 17.8257 13.475H20.2257C20.4724 13.475 20.5957 13.58 20.5957 13.79C20.5957 14.0033 20.4724 14.11 20.2257 14.11H19.4157V16.64C19.4157 16.7567 19.3807 16.85 19.3107 16.92C19.2407 16.99 19.1457 17.025 19.0257 17.025ZM21.5757 14.485C21.9357 14.485 22.2023 14.5733 22.3757 14.75C22.549 14.9233 22.6357 15.19 22.6357 15.55V16.68C22.6357 16.79 22.604 16.8767 22.5407 16.94C22.4773 17 22.389 17.03 22.2757 17.03C22.169 17.03 22.0823 16.9983 22.0157 16.935C21.9523 16.8683 21.9207 16.7833 21.9207 16.68V16.645C21.8707 16.7683 21.7873 16.865 21.6707 16.935C21.554 17.005 21.4173 17.04 21.2607 17.04C21.094 17.04 20.9423 17.0067 20.8057 16.94C20.6723 16.8733 20.5657 16.78 20.4857 16.66C20.409 16.54 20.3707 16.4067 20.3707 16.26C20.3707 16.08 20.4157 15.9383 20.5057 15.835C20.599 15.7317 20.7473 15.6567 20.9507 15.61C21.154 15.5633 21.4323 15.54 21.7857 15.54H21.9157V15.45C21.9157 15.31 21.884 15.2083 21.8207 15.145C21.7607 15.0817 21.659 15.05 21.5157 15.05C21.3723 15.05 21.1657 15.1 20.8957 15.2C20.819 15.2367 20.754 15.255 20.7007 15.255C20.6273 15.255 20.569 15.23 20.5257 15.18C20.4823 15.1267 20.4607 15.0583 20.4607 14.975C20.4607 14.9083 20.4757 14.8533 20.5057 14.81C20.5357 14.7667 20.584 14.7267 20.6507 14.69C20.7673 14.6267 20.909 14.5767 21.0757 14.54C21.2457 14.5033 21.4123 14.485 21.5757 14.485ZM21.4257 16.52C21.5723 16.52 21.6907 16.4717 21.7807 16.375C21.8707 16.275 21.9157 16.1467 21.9157 15.99V15.905H21.8307C21.5607 15.905 21.3707 15.9267 21.2607 15.97C21.154 16.0133 21.1007 16.0917 21.1007 16.205C21.1007 16.2983 21.1307 16.375 21.1907 16.435C21.254 16.4917 21.3323 16.52 21.4257 16.52ZM24.1302 17.04C23.9268 17.04 23.7502 17.0233 23.6002 16.99C23.4502 16.9567 23.3185 16.9033 23.2052 16.83C23.1552 16.8 23.1168 16.76 23.0902 16.71C23.0635 16.66 23.0502 16.6033 23.0502 16.54C23.0502 16.4633 23.0718 16.4 23.1152 16.35C23.1585 16.2967 23.2118 16.27 23.2752 16.27C23.3185 16.27 23.3618 16.2783 23.4052 16.295C23.4485 16.3083 23.4935 16.325 23.5402 16.345C23.6335 16.3883 23.7252 16.4233 23.8152 16.45C23.9052 16.4733 24.0168 16.485 24.1502 16.485C24.2668 16.485 24.3568 16.4667 24.4202 16.43C24.4868 16.3933 24.5202 16.3433 24.5202 16.28C24.5202 16.2333 24.5052 16.1967 24.4752 16.17C24.4485 16.14 24.3968 16.1133 24.3202 16.09C24.2435 16.0667 24.1218 16.0383 23.9552 16.005C23.6585 15.9483 23.4452 15.8633 23.3152 15.75C23.1852 15.6367 23.1202 15.4783 23.1202 15.275C23.1202 15.125 23.1652 14.99 23.2552 14.87C23.3485 14.75 23.4752 14.6567 23.6352 14.59C23.7952 14.52 23.9752 14.485 24.1752 14.485C24.3185 14.485 24.4585 14.5033 24.5952 14.54C24.7318 14.5767 24.8535 14.6283 24.9602 14.695C25.0635 14.7583 25.1152 14.8517 25.1152 14.975C25.1152 15.055 25.0935 15.1217 25.0502 15.175C25.0068 15.2283 24.9535 15.255 24.8902 15.255C24.8135 15.255 24.7218 15.225 24.6152 15.165C24.5318 15.1217 24.4552 15.09 24.3852 15.07C24.3185 15.0467 24.2385 15.035 24.1452 15.035C24.0418 15.035 23.9602 15.055 23.9002 15.095C23.8402 15.1317 23.8102 15.1833 23.8102 15.25C23.8102 15.32 23.8452 15.3733 23.9152 15.41C23.9852 15.4467 24.1202 15.4833 24.3202 15.52C24.5435 15.5633 24.7185 15.6167 24.8452 15.68C24.9718 15.74 25.0635 15.8167 25.1202 15.91C25.1768 16.0033 25.2052 16.1217 25.2052 16.265C25.2052 16.5017 25.1068 16.69 24.9102 16.83C24.7168 16.97 24.4568 17.04 24.1302 17.04ZM27.9517 16.415C28.0283 16.4883 28.0667 16.5717 28.0667 16.665C28.0667 16.7583 28.0317 16.8417 27.9617 16.915C27.895 16.9883 27.8167 17.025 27.7267 17.025C27.64 17.025 27.56 16.99 27.4867 16.92L26.3917 15.905V16.67C26.3917 16.7867 26.355 16.875 26.2817 16.935C26.2117 16.995 26.1233 17.025 26.0167 17.025C25.9067 17.025 25.815 16.995 25.7417 16.935C25.6717 16.875 25.6367 16.7867 25.6367 16.67V13.805C25.6367 13.6883 25.6717 13.6 25.7417 13.54C25.815 13.48 25.9067 13.45 26.0167 13.45C26.1233 13.45 26.2117 13.48 26.2817 13.54C26.355 13.6 26.3917 13.6883 26.3917 13.805V15.595L27.3917 14.61C27.465 14.5367 27.5467 14.5 27.6367 14.5C27.73 14.5 27.8117 14.535 27.8817 14.605C27.9517 14.6717 27.9867 14.7517 27.9867 14.845C27.9867 14.9317 27.9483 15.0133 27.8717 15.09L27.2067 15.725L27.9517 16.415ZM32.0613 16.375C32.3046 16.375 32.4263 16.4783 32.4263 16.685C32.4263 16.895 32.3046 17 32.0613 17H30.3513C30.1046 17 29.9813 16.895 29.9813 16.685C29.9813 16.4783 30.1046 16.375 30.3513 16.375H30.8162V14.33L30.3763 14.595C30.3263 14.625 30.2763 14.64 30.2263 14.64C30.1429 14.64 30.0713 14.605 30.0113 14.535C29.9546 14.465 29.9263 14.3867 29.9263 14.3C29.9263 14.1833 29.9779 14.095 30.0813 14.035L30.8713 13.56C30.9879 13.49 31.1046 13.455 31.2213 13.455C31.3313 13.455 31.4213 13.49 31.4913 13.56C31.5613 13.6267 31.5963 13.7183 31.5963 13.835V16.375H32.0613Z" fill="#4B82D8"/>
<path d="M30.922 39.62C31.0686 39.62 31.192 39.67 31.292 39.77C31.392 39.8633 31.442 39.9833 31.442 40.13C31.442 40.2767 31.392 40.4 31.292 40.5C31.192 40.6 31.0686 40.65 30.922 40.65H29.522V42.06C29.522 42.2067 29.472 42.33 29.372 42.43C29.272 42.5233 29.1486 42.57 29.002 42.57C28.8553 42.57 28.732 42.5233 28.632 42.43C28.532 42.33 28.482 42.2067 28.482 42.06V40.65H27.082C26.9353 40.65 26.812 40.6 26.712 40.5C26.612 40.4 26.562 40.2767 26.562 40.13C26.562 39.9833 26.612 39.8633 26.712 39.77C26.812 39.67 26.9353 39.62 27.082 39.62H28.482V38.21C28.482 38.0633 28.532 37.94 28.632 37.84C28.732 37.74 28.8553 37.69 29.002 37.69C29.1486 37.69 29.272 37.74 29.372 37.84C29.472 37.94 29.522 38.0633 29.522 38.21V39.62H30.922Z" fill="#4B82D8"/>
<path d="M44.925 15.0001C44.925 15.1001 44.8917 15.1834 44.825 15.2501C44.7617 15.3168 44.6783 15.3501 44.575 15.3501H40.8C40.6967 15.3501 40.6133 15.3184 40.55 15.2551C40.4833 15.1884 40.45 15.1034 40.45 15.0001C40.45 14.9001 40.4833 14.8168 40.55 14.7501C40.6133 14.6834 40.6967 14.6501 40.8 14.6501H44.575C44.6783 14.6501 44.7617 14.6834 44.825 14.7501C44.8917 14.8134 44.925 14.8968 44.925 15.0001Z" fill="#4B82D8"/>
<rect x="11.5" y="21.5" width="27" height="9" rx="0.5" fill="white" stroke="white"/>
<rect x="39.05" y="21.05" width="7.9" height="9.9" rx="0.95" fill="white" stroke="#636267" stroke-width="0.1"/>
<path d="M19.0233 28.025C18.9066 28.025 18.8116 27.99 18.7383 27.92C18.6683 27.85 18.6333 27.7567 18.6333 27.64V25.11H17.8233C17.5766 25.11 17.4533 25.0033 17.4533 24.79C17.4533 24.58 17.5766 24.475 17.8233 24.475H20.2233C20.4699 24.475 20.5933 24.58 20.5933 24.79C20.5933 25.0033 20.4699 25.11 20.2233 25.11H19.4133V27.64C19.4133 27.7567 19.3783 27.85 19.3083 27.92C19.2383 27.99 19.1433 28.025 19.0233 28.025ZM21.5732 25.485C21.9332 25.485 22.1999 25.5733 22.3732 25.75C22.5466 25.9233 22.6332 26.19 22.6332 26.55V27.68C22.6332 27.79 22.6016 27.8767 22.5382 27.94C22.4749 28 22.3866 28.03 22.2732 28.03C22.1666 28.03 22.0799 27.9983 22.0132 27.935C21.9499 27.8683 21.9182 27.7833 21.9182 27.68V27.645C21.8682 27.7683 21.7849 27.865 21.6682 27.935C21.5516 28.005 21.4149 28.04 21.2582 28.04C21.0916 28.04 20.9399 28.0067 20.8032 27.94C20.6699 27.8733 20.5632 27.78 20.4832 27.66C20.4066 27.54 20.3682 27.4067 20.3682 27.26C20.3682 27.08 20.4132 26.9383 20.5032 26.835C20.5966 26.7317 20.7449 26.6567 20.9482 26.61C21.1516 26.5633 21.4299 26.54 21.7832 26.54H21.9132V26.45C21.9132 26.31 21.8816 26.2083 21.8182 26.145C21.7582 26.0817 21.6566 26.05 21.5132 26.05C21.3699 26.05 21.1632 26.1 20.8932 26.2C20.8166 26.2367 20.7516 26.255 20.6982 26.255C20.6249 26.255 20.5666 26.23 20.5232 26.18C20.4799 26.1267 20.4582 26.0583 20.4582 25.975C20.4582 25.9083 20.4732 25.8533 20.5032 25.81C20.5332 25.7667 20.5816 25.7267 20.6482 25.69C20.7649 25.6267 20.9066 25.5767 21.0732 25.54C21.2432 25.5033 21.4099 25.485 21.5732 25.485ZM21.4232 27.52C21.5699 27.52 21.6882 27.4717 21.7782 27.375C21.8682 27.275 21.9132 27.1467 21.9132 26.99V26.905H21.8282C21.5582 26.905 21.3682 26.9267 21.2582 26.97C21.1516 27.0133 21.0982 27.0917 21.0982 27.205C21.0982 27.2983 21.1282 27.375 21.1882 27.435C21.2516 27.4917 21.3299 27.52 21.4232 27.52ZM24.1277 28.04C23.9244 28.04 23.7477 28.0233 23.5977 27.99C23.4477 27.9567 23.316 27.9033 23.2027 27.83C23.1527 27.8 23.1144 27.76 23.0877 27.71C23.061 27.66 23.0477 27.6033 23.0477 27.54C23.0477 27.4633 23.0694 27.4 23.1127 27.35C23.156 27.2967 23.2094 27.27 23.2727 27.27C23.316 27.27 23.3594 27.2783 23.4027 27.295C23.446 27.3083 23.491 27.325 23.5377 27.345C23.631 27.3883 23.7227 27.4233 23.8127 27.45C23.9027 27.4733 24.0144 27.485 24.1477 27.485C24.2644 27.485 24.3544 27.4667 24.4177 27.43C24.4844 27.3933 24.5177 27.3433 24.5177 27.28C24.5177 27.2333 24.5027 27.1967 24.4727 27.17C24.446 27.14 24.3944 27.1133 24.3177 27.09C24.241 27.0667 24.1194 27.0383 23.9527 27.005C23.656 26.9483 23.4427 26.8633 23.3127 26.75C23.1827 26.6367 23.1177 26.4783 23.1177 26.275C23.1177 26.125 23.1627 25.99 23.2527 25.87C23.346 25.75 23.4727 25.6567 23.6327 25.59C23.7927 25.52 23.9727 25.485 24.1727 25.485C24.316 25.485 24.456 25.5033 24.5927 25.54C24.7294 25.5767 24.851 25.6283 24.9577 25.695C25.061 25.7583 25.1127 25.8517 25.1127 25.975C25.1127 26.055 25.091 26.1217 25.0477 26.175C25.0044 26.2283 24.951 26.255 24.8877 26.255C24.811 26.255 24.7194 26.225 24.6127 26.165C24.5294 26.1217 24.4527 26.09 24.3827 26.07C24.316 26.0467 24.236 26.035 24.1427 26.035C24.0394 26.035 23.9577 26.055 23.8977 26.095C23.8377 26.1317 23.8077 26.1833 23.8077 26.25C23.8077 26.32 23.8427 26.3733 23.9127 26.41C23.9827 26.4467 24.1177 26.4833 24.3177 26.52C24.541 26.5633 24.716 26.6167 24.8427 26.68C24.9694 26.74 25.061 26.8167 25.1177 26.91C25.1744 27.0033 25.2027 27.1217 25.2027 27.265C25.2027 27.5017 25.1044 27.69 24.9077 27.83C24.7144 27.97 24.4544 28.04 24.1277 28.04ZM27.9492 27.415C28.0259 27.4883 28.0642 27.5717 28.0642 27.665C28.0642 27.7583 28.0292 27.8417 27.9592 27.915C27.8926 27.9883 27.8142 28.025 27.7242 28.025C27.6376 28.025 27.5576 27.99 27.4842 27.92L26.3892 26.905V27.67C26.3892 27.7867 26.3526 27.875 26.2792 27.935C26.2092 27.995 26.1209 28.025 26.0142 28.025C25.9042 28.025 25.8126 27.995 25.7392 27.935C25.6692 27.875 25.6342 27.7867 25.6342 27.67V24.805C25.6342 24.6883 25.6692 24.6 25.7392 24.54C25.8126 24.48 25.9042 24.45 26.0142 24.45C26.1209 24.45 26.2092 24.48 26.2792 24.54C26.3526 24.6 26.3892 24.6883 26.3892 24.805V26.595L27.3892 25.61C27.4626 25.5367 27.5442 25.5 27.6342 25.5C27.7276 25.5 27.8092 25.535 27.8792 25.605C27.9492 25.6717 27.9842 25.7517 27.9842 25.845C27.9842 25.9317 27.9459 26.0133 27.8692 26.09L27.2042 26.725L27.9492 27.415ZM31.9888 27.375C32.2355 27.375 32.3588 27.4783 32.3588 27.685C32.3588 27.895 32.2355 28 31.9888 28H30.1288C30.0255 28 29.9421 27.97 29.8788 27.91C29.8188 27.8467 29.7888 27.7683 29.7888 27.675C29.7888 27.555 29.8371 27.445 29.9338 27.345L31.0338 26.18C31.2805 25.92 31.4038 25.68 31.4038 25.46C31.4038 25.3233 31.3655 25.22 31.2888 25.15C31.2121 25.0767 31.1005 25.04 30.9538 25.04C30.8271 25.04 30.7105 25.0617 30.6038 25.105C30.4971 25.1483 30.3738 25.2117 30.2338 25.295C30.1771 25.3283 30.1338 25.3517 30.1038 25.365C30.0738 25.3783 30.0388 25.385 29.9988 25.385C29.9288 25.385 29.8688 25.3533 29.8188 25.29C29.7688 25.2233 29.7438 25.1467 29.7438 25.06C29.7438 24.9967 29.7538 24.945 29.7738 24.905C29.7971 24.8617 29.8338 24.8233 29.8838 24.79C30.0338 24.68 30.2055 24.5933 30.3988 24.53C30.5955 24.4633 30.7921 24.43 30.9888 24.43C31.2255 24.43 31.4321 24.47 31.6088 24.55C31.7888 24.63 31.9271 24.745 32.0238 24.895C32.1205 25.0417 32.1688 25.2117 32.1688 25.405C32.1688 25.6083 32.1255 25.7967 32.0388 25.97C31.9555 26.1433 31.8138 26.3367 31.6138 26.55L30.8288 27.375H31.9888Z" fill="#4B82D8"/>
<path d="M44.925 26.0001C44.925 26.1001 44.8917 26.1834 44.825 26.2501C44.7617 26.3168 44.6783 26.3501 44.575 26.3501H40.8C40.6967 26.3501 40.6133 26.3184 40.55 26.2551C40.4833 26.1884 40.45 26.1034 40.45 26.0001C40.45 25.9001 40.4833 25.8168 40.55 25.7501C40.6133 25.6834 40.6967 25.6501 40.8 25.6501H44.575C44.6783 25.6501 44.7617 25.6834 44.825 25.7501C44.8917 25.8134 44.925 25.8968 44.925 26.0001Z" fill="#4B82D8"/>
</svg>
