<svg width="57" height="57" viewBox="0 0 57 57" fill="none" xmlns="http://www.w3.org/2000/svg">
<path d="M48.2882 28C48.2882 39.2048 39.2049 48.2881 28 48.2881C16.7952 48.2881 7.71191 39.2048 7.71191 28C7.71191 16.7952 16.7952 7.71185 28 7.71185C39.2049 7.71185 48.2882 16.7952 48.2882 28ZM8.2047 28C8.2047 38.9327 17.0674 47.7953 28 47.7953C38.9327 47.7953 47.7954 38.9327 47.7954 28C47.7954 17.0673 38.9327 8.20464 28 8.20464C17.0674 8.20464 8.2047 17.0673 8.2047 28Z" fill="#4B82D8"/>
<path d="M29.0419 7.90408C29.067 7.42033 29.4799 7.04661 29.9622 7.09186C35.1043 7.57427 39.9006 9.93725 43.4204 13.7448C47.1391 17.7675 49.1387 23.0841 48.9925 28.5603C48.8464 34.0366 46.566 39.2389 42.638 43.0575C38.71 46.8761 33.4453 49.0086 27.9671 49C22.4889 48.9914 17.2309 46.8424 13.3149 43.0116C9.39884 39.1807 7.13482 33.9712 7.00582 28.4945C6.87682 23.0178 8.89305 17.7075 12.6244 13.6965C16.1561 9.90003 20.9597 7.55209 26.1033 7.08581C26.5858 7.04207 26.9975 7.41709 27.0211 7.90092V7.90092C27.0446 8.38475 26.6711 8.794 26.1889 8.83957C21.5024 9.28239 17.1288 11.4299 13.9087 14.8913C10.4891 18.5673 8.6413 23.434 8.75952 28.4532C8.87774 33.4724 10.9526 38.2467 14.5415 41.7576C18.1305 45.2685 22.9492 47.2379 27.9698 47.2458C32.9904 47.2537 37.8154 45.2993 41.4153 41.7997C45.0152 38.3001 47.105 33.5323 47.239 28.5135C47.3729 23.4947 45.5404 18.6222 42.1323 14.9356C38.9231 11.4641 34.5562 9.30285 29.8712 8.84534C29.3891 8.79826 29.0169 8.38784 29.0419 7.90408V7.90408Z" fill="#4B82D8"/>
<path d="M47.3775 24.8305C48.1215 24.7088 48.8279 25.2132 48.901 25.9635C49.1513 28.5321 48.9263 31.1289 48.2332 33.623C47.4181 36.5561 45.9749 39.2769 44.0038 41.597C42.0327 43.917 39.5808 45.7807 36.8178 47.059C34.4685 48.1459 31.9422 48.7875 29.3669 48.9555C28.6146 49.0045 28.0027 48.3889 28.0026 47.635V47.635C28.0025 46.8811 28.6144 46.2752 29.3662 46.2188C31.5454 46.0554 33.6815 45.502 35.6715 44.5813C38.0753 43.4692 40.2085 41.8478 41.9233 39.8294C43.6382 37.8109 44.8937 35.4438 45.6029 32.892C46.19 30.7793 46.391 28.5819 46.2002 26.4049C46.1344 25.654 46.6335 24.9522 47.3775 24.8305V24.8305Z" fill="#6DB974"/>
<path d="M28 8.34793C28 7.60349 28.6042 6.99549 29.3471 7.04323C33.8485 7.33247 38.1509 9.06535 41.6052 12.0032C45.0594 14.941 47.4605 18.9094 48.4687 23.306C48.6351 24.0316 48.132 24.7255 47.3972 24.8451V24.8451C46.6624 24.9646 45.9748 24.4641 45.8015 23.7401C44.9007 19.975 42.8252 16.5798 39.8586 14.0567C36.892 11.5337 33.2077 10.0302 29.3468 9.74546C28.6044 9.6907 28 9.09238 28 8.34793V8.34793Z" fill="#C2E082"/>
<path d="M28 47.635C28 48.3889 27.3882 49.0046 26.6359 48.9557C24.0458 48.7871 21.5052 48.1394 19.1445 47.0415C16.3706 45.7515 13.912 43.8709 11.9407 41.5314C9.96949 39.192 8.5332 36.45 7.73234 33.4975C7.05079 30.9847 6.84345 28.3711 7.11662 25.7899C7.19596 25.0402 7.90656 24.5417 8.6495 24.6696V24.6696C9.39245 24.7975 9.88569 25.5034 9.81364 26.2538C9.60353 28.442 9.78972 30.654 10.3671 32.7828C11.0639 35.3515 12.3135 37.737 14.0284 39.7724C15.7434 41.8077 17.8824 43.4438 20.2957 44.5661C22.2957 45.4963 24.4441 46.0549 26.6362 46.219C27.388 46.2753 28 46.8811 28 47.635V47.635Z" fill="#48C26A"/>
<path d="M8.63733 24.7411C7.89392 24.616 7.38825 23.9105 7.56138 23.1768C8.59123 18.8123 10.9953 14.8789 14.4372 11.9672C17.879 9.05563 22.1565 7.3368 26.6313 7.04463C27.3836 6.99551 27.9955 7.61113 27.9957 8.365V8.365C27.9958 9.11887 27.3839 9.72483 26.6322 9.78125C22.8034 10.0686 19.1493 11.5568 16.2003 14.0515C13.2513 16.5462 11.178 19.9031 10.26 23.6312C10.0797 24.3632 9.38074 24.8663 8.63733 24.7411V24.7411Z" fill="#64EF33"/>
<path d="M19.9801 29.8347C20.4734 29.8347 20.7201 30.0414 20.7201 30.4547C20.7201 30.8747 20.4734 31.0847 19.9801 31.0847H16.2601C16.0534 31.0847 15.8868 31.0247 15.7601 30.9047C15.6401 30.7781 15.5801 30.6214 15.5801 30.4347C15.5801 30.1947 15.6768 29.9747 15.8701 29.7747L18.0701 27.4447C18.5634 26.9247 18.8101 26.4447 18.8101 26.0047C18.8101 25.7314 18.7334 25.5247 18.5801 25.3847C18.4268 25.238 18.2034 25.1647 17.9101 25.1647C17.6568 25.1647 17.4234 25.208 17.2101 25.2947C16.9968 25.3814 16.7501 25.508 16.4701 25.6747C16.3568 25.7414 16.2701 25.788 16.2101 25.8147C16.1501 25.8414 16.0801 25.8547 16.0001 25.8547C15.8601 25.8547 15.7401 25.7914 15.6401 25.6647C15.5401 25.5314 15.4901 25.378 15.4901 25.2047C15.4901 25.078 15.5101 24.9747 15.5501 24.8947C15.5968 24.808 15.6701 24.7314 15.7701 24.6647C16.0701 24.4447 16.4134 24.2714 16.8001 24.1447C17.1934 24.0114 17.5868 23.9447 17.9801 23.9447C18.4534 23.9447 18.8668 24.0247 19.2201 24.1847C19.5801 24.3447 19.8568 24.5747 20.0501 24.8747C20.2434 25.168 20.3401 25.508 20.3401 25.8947C20.3401 26.3014 20.2534 26.678 20.0801 27.0247C19.9134 27.3714 19.6301 27.7581 19.2301 28.1847L17.6601 29.8347H19.9801ZM24.496 26.5247C24.9293 26.5247 25.316 26.6214 25.656 26.8147C25.996 27.0014 26.2593 27.2647 26.446 27.6047C26.6326 27.9447 26.726 28.338 26.726 28.7847C26.726 29.2514 26.616 29.6647 26.396 30.0247C26.176 30.3847 25.866 30.6647 25.466 30.8647C25.0726 31.0647 24.616 31.1647 24.096 31.1647C23.6826 31.1647 23.2793 31.1014 22.886 30.9747C22.4926 30.8481 22.1526 30.6714 21.866 30.4447C21.766 30.3714 21.696 30.2947 21.656 30.2147C21.616 30.1281 21.596 30.0247 21.596 29.9047C21.596 29.7314 21.6426 29.5847 21.736 29.4647C21.836 29.3381 21.956 29.2747 22.096 29.2747C22.176 29.2747 22.2493 29.2881 22.316 29.3147C22.3826 29.3347 22.4693 29.3747 22.576 29.4347C22.8426 29.5947 23.086 29.7214 23.306 29.8147C23.526 29.9014 23.766 29.9447 24.026 29.9447C24.4326 29.9447 24.7393 29.8514 24.946 29.6647C25.1593 29.4781 25.266 29.2014 25.266 28.8347C25.266 28.4881 25.156 28.2147 24.936 28.0147C24.7226 27.8147 24.4326 27.7147 24.066 27.7147C23.8393 27.7147 23.6326 27.7447 23.446 27.8047C23.2593 27.858 23.056 27.9514 22.836 28.0847C22.696 28.1647 22.556 28.2047 22.416 28.2047C22.256 28.2047 22.1193 28.158 22.006 28.0647C21.8993 27.9647 21.846 27.8347 21.846 27.6747V24.7647C21.846 24.5314 21.9093 24.3514 22.036 24.2247C22.1626 24.098 22.3426 24.0347 22.576 24.0347H25.796C26.2893 24.0347 26.536 24.2314 26.536 24.6247C26.536 25.0247 26.2893 25.2247 25.796 25.2247H23.366V26.7947C23.686 26.6147 24.0626 26.5247 24.496 26.5247ZM28.362 27.7947C28.1154 27.7947 27.912 27.7147 27.752 27.5547C27.592 27.388 27.512 27.1814 27.512 26.9347C27.512 26.688 27.592 26.4847 27.752 26.3247C27.912 26.158 28.1154 26.0747 28.362 26.0747C28.6087 26.0747 28.812 26.158 28.972 26.3247C29.132 26.4847 29.212 26.688 29.212 26.9347C29.212 27.1814 29.132 27.388 28.972 27.5547C28.812 27.7147 28.6087 27.7947 28.362 27.7947ZM28.362 31.1447C28.1154 31.1447 27.912 31.0647 27.752 30.9047C27.592 30.7381 27.512 30.5314 27.512 30.2847C27.512 30.0381 27.592 29.8347 27.752 29.6747C27.912 29.5081 28.1154 29.4247 28.362 29.4247C28.6087 29.4247 28.812 29.5081 28.972 29.6747C29.132 29.8347 29.212 30.0381 29.212 30.2847C29.212 30.5314 29.132 30.7381 28.972 30.9047C28.812 31.0647 28.6087 31.1447 28.362 31.1447ZM32.6597 31.1747C31.8064 31.1747 31.153 30.8647 30.6997 30.2447C30.253 29.6247 30.0297 28.7281 30.0297 27.5547C30.0297 26.3881 30.253 25.4947 30.6997 24.8747C31.153 24.2547 31.8064 23.9447 32.6597 23.9447C33.513 23.9447 34.163 24.2547 34.6097 24.8747C35.063 25.4947 35.2897 26.3881 35.2897 27.5547C35.2897 28.7281 35.063 29.6247 34.6097 30.2447C34.163 30.8647 33.513 31.1747 32.6597 31.1747ZM32.6597 29.9847C33.0464 29.9847 33.3264 29.7914 33.4997 29.4047C33.6797 29.0181 33.7697 28.4014 33.7697 27.5547C33.7697 26.7014 33.6797 26.0847 33.4997 25.7047C33.3264 25.3247 33.0464 25.1347 32.6597 25.1347C32.273 25.1347 31.9897 25.328 31.8097 25.7147C31.6364 26.0947 31.5497 26.708 31.5497 27.5547C31.5497 28.4014 31.6364 29.0181 31.8097 29.4047C31.9897 29.7914 32.273 29.9847 32.6597 29.9847ZM38.6558 31.1747C37.8025 31.1747 37.1491 30.8647 36.6958 30.2447C36.2491 29.6247 36.0258 28.7281 36.0258 27.5547C36.0258 26.3881 36.2491 25.4947 36.6958 24.8747C37.1491 24.2547 37.8025 23.9447 38.6558 23.9447C39.5091 23.9447 40.1591 24.2547 40.6058 24.8747C41.0591 25.4947 41.2858 26.3881 41.2858 27.5547C41.2858 28.7281 41.0591 29.6247 40.6058 30.2447C40.1591 30.8647 39.5091 31.1747 38.6558 31.1747ZM38.6558 29.9847C39.0425 29.9847 39.3225 29.7914 39.4958 29.4047C39.6758 29.0181 39.7658 28.4014 39.7658 27.5547C39.7658 26.7014 39.6758 26.0847 39.4958 25.7047C39.3225 25.3247 39.0425 25.1347 38.6558 25.1347C38.2691 25.1347 37.9858 25.328 37.8058 25.7147C37.6325 26.0947 37.5458 26.708 37.5458 27.5547C37.5458 28.4014 37.6325 29.0181 37.8058 29.4047C37.9858 29.7914 38.2691 29.9847 38.6558 29.9847Z" fill="#F7FEFF"/>
<rect x="0.5" y="0.5" width="56" height="56" rx="4.5" stroke="white"/>
</svg>
