<svg width="119" height="55" viewBox="0 0 119 55" fill="none" xmlns="http://www.w3.org/2000/svg">
<path d="M70 25.5C70 31.299 65.299 36 59.5 36C53.701 36 49 31.299 49 25.5C49 19.701 53.701 15 59.5 15C65.299 15 70 19.701 70 25.5ZM49.255 25.5C49.255 31.1581 53.8419 35.745 59.5 35.745C65.1581 35.745 69.745 31.1581 69.745 25.5C69.745 19.8419 65.1581 15.255 59.5 15.255C53.8419 15.255 49.255 19.8419 49.255 25.5Z" fill="#4B82D8"/>
<path d="M60.021 15.452C60.0335 15.2102 60.24 15.0233 60.4811 15.0459C63.0522 15.2871 65.4503 16.4686 67.2102 18.3724C69.0696 20.3837 70.0693 23.042 69.9963 25.7802C69.9232 28.5183 68.783 31.1195 66.819 33.0288C64.855 34.938 62.2226 36.0043 59.4835 36C56.7444 35.9957 54.1154 34.9212 52.1574 33.0058C50.1994 31.0903 49.0674 28.4856 49.0029 25.7473C48.9384 23.0089 49.9465 20.3538 51.8122 18.3483C53.5781 16.45 55.9799 15.276 58.5517 15.0429C58.7929 15.021 58.9987 15.2085 59.0105 15.4505V15.4505C59.0223 15.6924 58.8356 15.897 58.5944 15.9198C56.2512 16.1412 54.0644 17.215 52.4544 18.9457C50.7446 20.7836 49.8206 23.217 49.8798 25.7266C49.9389 28.2362 50.9763 30.6234 52.7708 32.3788C54.5652 34.1342 56.9746 35.119 59.4849 35.1229C61.9952 35.1268 64.4077 34.1497 66.2076 32.3999C68.0076 30.6501 69.0525 28.2662 69.1195 25.7568C69.1865 23.2473 68.2702 20.8111 66.5661 18.9678C64.9616 17.232 62.7781 16.1514 60.4356 15.9227C60.1945 15.8991 60.0084 15.6939 60.021 15.452V15.452Z" fill="#4B82D8"/>
<path d="M69.1888 23.9153C69.5607 23.8544 69.914 24.1066 69.9505 24.4818C70.0756 25.7661 69.9632 27.0645 69.6166 28.3115C69.209 29.7781 68.4875 31.1385 67.5019 32.2985C66.5164 33.4585 65.2904 34.3904 63.9089 35.0295C62.7343 35.573 61.4711 35.8937 60.1834 35.9777C59.8073 36.0023 59.5014 35.6944 59.5013 35.3175V35.3175C59.5013 34.9406 59.8072 34.6376 60.1831 34.6094C61.2727 34.5277 62.3407 34.251 63.3358 33.7907C64.5376 33.2346 65.6042 32.4239 66.4617 31.4147C67.3191 30.4055 67.9469 29.2219 68.3014 27.946C68.595 26.8897 68.6955 25.791 68.6001 24.7025C68.5672 24.327 68.8168 23.9761 69.1888 23.9153V23.9153Z" fill="#6DB974"/>
<path d="M59.5 15.674C59.5 15.3017 59.8021 14.9977 60.1735 15.0216C62.4243 15.1662 64.5755 16.0327 66.3026 17.5016C68.0297 18.9705 69.2303 20.9547 69.7343 23.153C69.8175 23.5158 69.566 23.8628 69.1986 23.9225V23.9225C68.8312 23.9823 68.4874 23.732 68.4008 23.37C67.9503 21.4875 66.9126 19.7899 65.4293 18.5284C63.946 17.2668 62.1038 16.5151 60.1734 16.3727C59.8022 16.3454 59.5 16.0462 59.5 15.674V15.674Z" fill="#C2E082"/>
<path d="M59.5 35.3175C59.5 35.6944 59.1941 36.0023 58.818 35.9778C57.5229 35.8935 56.2526 35.5697 55.0723 35.0208C53.6853 34.3757 52.456 33.4355 51.4704 32.2657C50.4847 31.096 49.7666 29.725 49.3662 28.2487C49.0254 26.9924 48.9217 25.6856 49.0583 24.395C49.098 24.0201 49.4533 23.7709 49.8248 23.8348V23.8348C50.1962 23.8987 50.4428 24.2517 50.4068 24.6269C50.3018 25.721 50.3949 26.827 50.6836 27.8914C51.0319 29.1758 51.6567 30.3685 52.5142 31.3862C53.3717 32.4039 54.4412 33.2219 55.6479 33.7831C56.6479 34.2481 57.7221 34.5275 58.8181 34.6095C59.194 34.6377 59.5 34.9406 59.5 35.3175V35.3175Z" fill="#48C26A"/>
<path d="M49.8187 23.8706C49.447 23.808 49.1941 23.4552 49.2807 23.0884C49.7956 20.9061 50.9976 18.9394 52.7186 17.4836C54.4395 16.0278 56.5783 15.1684 58.8157 15.0223C59.1918 14.9978 59.4978 15.3056 59.4978 15.6825V15.6825C59.4979 16.0594 59.192 16.3624 58.8161 16.3906C56.9017 16.5343 55.0747 17.2784 53.6002 18.5258C52.1257 19.7731 51.089 21.4515 50.63 23.3156C50.5399 23.6816 50.1904 23.9331 49.8187 23.8706V23.8706Z" fill="#64EF33"/>
<rect x="0.5" y="17.5" width="16" height="5" rx="0.5" fill="white" stroke="white"/>
<rect x="17.05" y="17.05" width="4.9" height="5.9" rx="0.95" fill="#FF9494" stroke="#636267" stroke-width="0.1"/>
<circle cx="11" cy="36" r="4" fill="white"/>
<rect x="0.5" y="24.5" width="16" height="5" rx="0.5" fill="white" stroke="white"/>
<rect x="17.05" y="24.05" width="4.9" height="5.9" rx="0.95" fill="#FF9494" stroke="#636267" stroke-width="0.1"/>
<rect x="107" y="27" width="4" height="4" fill="#3DB960"/>
<rect x="107" y="22" width="4" height="4" fill="#3DB960"/>
<rect x="107" y="17" width="4" height="4" fill="#E04C46"/>
<rect x="112" y="27" width="4" height="4" fill="#3DB960"/>
<rect x="112" y="22" width="4" height="4" fill="#3DB960"/>
<rect x="112" y="17" width="4" height="4" fill="#3DB960"/>
<rect x="97" y="27" width="4" height="4" fill="#3DB960"/>
<rect x="97" y="22" width="4" height="4" fill="#E04C46"/>
<rect x="97" y="17" width="4" height="4" fill="#3DB960"/>
<rect x="102" y="27" width="4" height="4" fill="#3DB960"/>
<rect x="107" y="32" width="4" height="4" fill="#3DB960"/>
<rect x="112" y="32" width="4" height="4" fill="#E04C46"/>
<rect x="97" y="32" width="4" height="4" fill="#3DB960"/>
<rect x="102" y="32" width="4" height="4" fill="#3DB960"/>
<rect x="102" y="22" width="4" height="4" fill="#3DB960"/>
<rect x="102" y="17" width="4" height="4" fill="#3DB960"/>
<path d="M5.41542 21.015C5.34542 21.015 5.28842 20.994 5.24442 20.952C5.20242 20.91 5.18142 20.854 5.18142 20.784V19.266H4.69542C4.54742 19.266 4.47342 19.202 4.47342 19.074C4.47342 18.948 4.54742 18.885 4.69542 18.885H6.13542C6.28342 18.885 6.35742 18.948 6.35742 19.074C6.35742 19.202 6.28342 19.266 6.13542 19.266H5.64942V20.784C5.64942 20.854 5.62842 20.91 5.58642 20.952C5.54442 20.994 5.48742 21.015 5.41542 21.015ZM6.9454 19.491C7.1614 19.491 7.3214 19.544 7.4254 19.65C7.5294 19.754 7.5814 19.914 7.5814 20.13V20.808C7.5814 20.874 7.5624 20.926 7.5244 20.964C7.4864 21 7.4334 21.018 7.3654 21.018C7.3014 21.018 7.2494 20.999 7.2094 20.961C7.1714 20.921 7.1524 20.87 7.1524 20.808V20.787C7.1224 20.861 7.0724 20.919 7.0024 20.961C6.9324 21.003 6.8504 21.024 6.7564 21.024C6.6564 21.024 6.5654 21.004 6.4834 20.964C6.4034 20.924 6.3394 20.868 6.2914 20.796C6.2454 20.724 6.2224 20.644 6.2224 20.556C6.2224 20.448 6.2494 20.363 6.3034 20.301C6.3594 20.239 6.4484 20.194 6.5704 20.166C6.6924 20.138 6.8594 20.124 7.0714 20.124H7.1494V20.07C7.1494 19.986 7.1304 19.925 7.0924 19.887C7.0564 19.849 6.9954 19.83 6.9094 19.83C6.8234 19.83 6.6994 19.86 6.5374 19.92C6.4914 19.942 6.4524 19.953 6.4204 19.953C6.3764 19.953 6.3414 19.938 6.3154 19.908C6.2894 19.876 6.2764 19.835 6.2764 19.785C6.2764 19.745 6.2854 19.712 6.3034 19.686C6.3214 19.66 6.3504 19.636 6.3904 19.614C6.4604 19.576 6.5454 19.546 6.6454 19.524C6.7474 19.502 6.8474 19.491 6.9454 19.491ZM6.8554 20.712C6.9434 20.712 7.0144 20.683 7.0684 20.625C7.1224 20.565 7.1494 20.488 7.1494 20.394V20.343H7.0984C6.9364 20.343 6.8224 20.356 6.7564 20.382C6.6924 20.408 6.6604 20.455 6.6604 20.523C6.6604 20.579 6.6784 20.625 6.7144 20.661C6.7524 20.695 6.7994 20.712 6.8554 20.712ZM8.47809 21.024C8.35609 21.024 8.25009 21.014 8.16009 20.994C8.07009 20.974 7.99109 20.942 7.92309 20.898C7.89309 20.88 7.87009 20.856 7.85409 20.826C7.83809 20.796 7.83009 20.762 7.83009 20.724C7.83009 20.678 7.84309 20.64 7.86909 20.61C7.89509 20.578 7.92709 20.562 7.96509 20.562C7.99109 20.562 8.01709 20.567 8.04309 20.577C8.06909 20.585 8.09609 20.595 8.12409 20.607C8.18009 20.633 8.23509 20.654 8.28909 20.67C8.34309 20.684 8.41009 20.691 8.49009 20.691C8.56009 20.691 8.61409 20.68 8.65209 20.658C8.69209 20.636 8.71209 20.606 8.71209 20.568C8.71209 20.54 8.70309 20.518 8.68509 20.502C8.66909 20.484 8.63809 20.468 8.59209 20.454C8.54609 20.44 8.47309 20.423 8.37309 20.403C8.19509 20.369 8.06709 20.318 7.98909 20.25C7.91109 20.182 7.87209 20.087 7.87209 19.965C7.87209 19.875 7.89909 19.794 7.95309 19.722C8.00909 19.65 8.08509 19.594 8.18109 19.554C8.27709 19.512 8.38509 19.491 8.50509 19.491C8.59109 19.491 8.67509 19.502 8.75709 19.524C8.83909 19.546 8.91209 19.577 8.97609 19.617C9.03809 19.655 9.06909 19.711 9.06909 19.785C9.06909 19.833 9.05609 19.873 9.03009 19.905C9.00409 19.937 8.97209 19.953 8.93409 19.953C8.88809 19.953 8.83309 19.935 8.76909 19.899C8.71909 19.873 8.67309 19.854 8.63109 19.842C8.59109 19.828 8.54309 19.821 8.48709 19.821C8.42509 19.821 8.37609 19.833 8.34009 19.857C8.30409 19.879 8.28609 19.91 8.28609 19.95C8.28609 19.992 8.30709 20.024 8.34909 20.046C8.39109 20.068 8.47209 20.09 8.59209 20.112C8.72609 20.138 8.83109 20.17 8.90709 20.208C8.98309 20.244 9.03809 20.29 9.07209 20.346C9.10609 20.402 9.12309 20.473 9.12309 20.559C9.12309 20.701 9.06409 20.814 8.94609 20.898C8.83009 20.982 8.67409 21.024 8.47809 21.024ZM10.771 20.649C10.817 20.693 10.84 20.743 10.84 20.799C10.84 20.855 10.819 20.905 10.777 20.949C10.737 20.993 10.69 21.015 10.636 21.015C10.584 21.015 10.536 20.994 10.492 20.952L9.83501 20.343V20.802C9.83501 20.872 9.81301 20.925 9.76901 20.961C9.72701 20.997 9.67401 21.015 9.61001 21.015C9.54401 21.015 9.48901 20.997 9.44501 20.961C9.40301 20.925 9.38201 20.872 9.38201 20.802V19.083C9.38201 19.013 9.40301 18.96 9.44501 18.924C9.48901 18.888 9.54401 18.87 9.61001 18.87C9.67401 18.87 9.72701 18.888 9.76901 18.924C9.81301 18.96 9.83501 19.013 9.83501 19.083V20.157L10.435 19.566C10.479 19.522 10.528 19.5 10.582 19.5C10.638 19.5 10.687 19.521 10.729 19.563C10.771 19.603 10.792 19.651 10.792 19.707C10.792 19.759 10.769 19.808 10.723 19.854L10.324 20.235L10.771 20.649ZM13.2368 20.625C13.3828 20.625 13.4558 20.687 13.4558 20.811C13.4558 20.937 13.3828 21 13.2368 21H12.2108C12.0628 21 11.9888 20.937 11.9888 20.811C11.9888 20.687 12.0628 20.625 12.2108 20.625H12.4897V19.398L12.2258 19.557C12.1958 19.575 12.1658 19.584 12.1358 19.584C12.0858 19.584 12.0428 19.563 12.0068 19.521C11.9728 19.479 11.9558 19.432 11.9558 19.38C11.9558 19.31 11.9868 19.257 12.0488 19.221L12.5228 18.936C12.5928 18.894 12.6628 18.873 12.7328 18.873C12.7988 18.873 12.8528 18.894 12.8948 18.936C12.9368 18.976 12.9578 19.031 12.9578 19.101V20.625H13.2368Z" fill="#4B82D8"/>
<path d="M1.09729 48.405C0.875285 48.049 0.764285 47.651 0.764285 47.211C0.764285 46.767 0.875285 46.367 1.09729 46.011C1.12529 45.965 1.15829 45.931 1.19629 45.909C1.23629 45.885 1.27529 45.873 1.31329 45.873C1.35329 45.873 1.38629 45.886 1.41229 45.912C1.44029 45.936 1.45429 45.969 1.45429 46.011C1.45429 46.037 1.44829 46.067 1.43629 46.101C1.36429 46.283 1.31129 46.464 1.27729 46.644C1.24529 46.824 1.22929 47.013 1.22929 47.211C1.22929 47.409 1.24529 47.597 1.27729 47.775C1.31129 47.953 1.36429 48.133 1.43629 48.315C1.44829 48.349 1.45429 48.379 1.45429 48.405C1.45429 48.447 1.44029 48.48 1.41229 48.504C1.38629 48.53 1.35329 48.543 1.31329 48.543C1.27529 48.543 1.23629 48.531 1.19629 48.507C1.15829 48.485 1.12529 48.451 1.09729 48.405ZM3.11029 47.625C3.25629 47.625 3.32929 47.687 3.32929 47.811C3.32929 47.937 3.25629 48 3.11029 48H2.08429C1.93629 48 1.86229 47.937 1.86229 47.811C1.86229 47.687 1.93629 47.625 2.08429 47.625H2.36329V46.398L2.09929 46.557C2.06929 46.575 2.03929 46.584 2.00929 46.584C1.95929 46.584 1.91629 46.563 1.88029 46.521C1.84629 46.479 1.82929 46.432 1.82929 46.38C1.82929 46.31 1.86029 46.257 1.92229 46.221L2.39629 45.936C2.46629 45.894 2.53629 45.873 2.60629 45.873C2.67229 45.873 2.72629 45.894 2.76829 45.936C2.81029 45.976 2.83129 46.031 2.83129 46.101V47.625H3.11029ZM3.88611 48.405C3.85811 48.451 3.82411 48.485 3.78411 48.507C3.74611 48.531 3.70811 48.543 3.67011 48.543C3.63011 48.543 3.59611 48.53 3.56811 48.504C3.54211 48.48 3.52911 48.447 3.52911 48.405C3.52911 48.379 3.53511 48.349 3.54711 48.315C3.61911 48.133 3.67111 47.953 3.70311 47.775C3.73711 47.597 3.75411 47.409 3.75411 47.211C3.75411 47.013 3.73711 46.824 3.70311 46.644C3.67111 46.464 3.61911 46.283 3.54711 46.101C3.53511 46.067 3.52911 46.037 3.52911 46.011C3.52911 45.969 3.54211 45.936 3.56811 45.912C3.59611 45.886 3.63011 45.873 3.67011 45.873C3.70811 45.873 3.74611 45.885 3.78411 45.909C3.82411 45.931 3.85811 45.965 3.88611 46.011C4.10611 46.363 4.21611 46.763 4.21611 47.211C4.21611 47.655 4.10611 48.053 3.88611 48.405ZM7.535 47.715C7.551 47.751 7.559 47.783 7.559 47.811C7.559 47.867 7.536 47.915 7.49 47.955C7.446 47.993 7.395 48.012 7.337 48.012C7.299 48.012 7.263 48.002 7.229 47.982C7.195 47.96 7.169 47.928 7.151 47.886L6.992 47.532H5.975L5.816 47.886C5.798 47.928 5.772 47.96 5.738 47.982C5.706 48.002 5.67 48.012 5.63 48.012C5.572 48.012 5.52 47.993 5.474 47.955C5.428 47.915 5.405 47.867 5.405 47.811C5.405 47.783 5.413 47.751 5.429 47.715L6.239 46.014C6.261 45.966 6.294 45.93 6.338 45.906C6.382 45.88 6.429 45.867 6.479 45.867C6.531 45.867 6.579 45.88 6.623 45.906C6.667 45.932 6.701 45.968 6.725 46.014L7.535 47.715ZM6.134 47.178H6.833L6.485 46.398L6.134 47.178ZM9.03793 45.87C9.10793 45.87 9.16393 45.889 9.20593 45.927C9.24993 45.965 9.27193 46.015 9.27193 46.077V47.805C9.27193 47.869 9.25093 47.921 9.20893 47.961C9.16893 47.999 9.11493 48.018 9.04693 48.018C8.97893 48.018 8.92393 47.999 8.88193 47.961C8.84193 47.921 8.82193 47.869 8.82193 47.805V47.781C8.77793 47.857 8.71493 47.917 8.63293 47.961C8.55293 48.003 8.46193 48.024 8.35993 48.024C8.23393 48.024 8.12093 47.992 8.02093 47.928C7.92293 47.862 7.84593 47.771 7.78993 47.655C7.73593 47.537 7.70893 47.402 7.70893 47.25C7.70893 47.098 7.73593 46.965 7.78993 46.851C7.84593 46.735 7.92293 46.646 8.02093 46.584C8.11893 46.522 8.23193 46.491 8.35993 46.491C8.45993 46.491 8.54993 46.512 8.62993 46.554C8.71193 46.596 8.77493 46.655 8.81893 46.731V46.068C8.81893 46.008 8.83893 45.96 8.87893 45.924C8.91893 45.888 8.97193 45.87 9.03793 45.87ZM8.49193 47.679C8.59793 47.679 8.67893 47.643 8.73493 47.571C8.79293 47.497 8.82193 47.392 8.82193 47.256C8.82193 47.12 8.79293 47.016 8.73493 46.944C8.67893 46.872 8.59793 46.836 8.49193 46.836C8.38593 46.836 8.30393 46.872 8.24593 46.944C8.18793 47.014 8.15893 47.116 8.15893 47.25C8.15893 47.386 8.18793 47.492 8.24593 47.568C8.30393 47.642 8.38593 47.679 8.49193 47.679ZM10.8778 45.87C10.9478 45.87 11.0038 45.889 11.0458 45.927C11.0898 45.965 11.1118 46.015 11.1118 46.077V47.805C11.1118 47.869 11.0908 47.921 11.0488 47.961C11.0088 47.999 10.9548 48.018 10.8868 48.018C10.8188 48.018 10.7638 47.999 10.7218 47.961C10.6818 47.921 10.6618 47.869 10.6618 47.805V47.781C10.6178 47.857 10.5548 47.917 10.4728 47.961C10.3928 48.003 10.3018 48.024 10.1998 48.024C10.0738 48.024 9.96078 47.992 9.86078 47.928C9.76278 47.862 9.68578 47.771 9.62978 47.655C9.57578 47.537 9.54878 47.402 9.54878 47.25C9.54878 47.098 9.57578 46.965 9.62978 46.851C9.68578 46.735 9.76278 46.646 9.86078 46.584C9.95878 46.522 10.0718 46.491 10.1998 46.491C10.2998 46.491 10.3898 46.512 10.4698 46.554C10.5518 46.596 10.6148 46.655 10.6588 46.731V46.068C10.6588 46.008 10.6788 45.96 10.7188 45.924C10.7588 45.888 10.8118 45.87 10.8778 45.87ZM10.3318 47.679C10.4378 47.679 10.5188 47.643 10.5748 47.571C10.6328 47.497 10.6618 47.392 10.6618 47.256C10.6618 47.12 10.6328 47.016 10.5748 46.944C10.5188 46.872 10.4378 46.836 10.3318 46.836C10.2258 46.836 10.1438 46.872 10.0858 46.944C10.0278 47.014 9.99878 47.116 9.99878 47.25C9.99878 47.386 10.0278 47.492 10.0858 47.568C10.1438 47.642 10.2258 47.679 10.3318 47.679ZM12.9615 46.491C13.1775 46.491 13.3375 46.544 13.4415 46.65C13.5455 46.754 13.5975 46.914 13.5975 47.13V47.808C13.5975 47.874 13.5785 47.926 13.5405 47.964C13.5025 48 13.4495 48.018 13.3815 48.018C13.3175 48.018 13.2655 47.999 13.2255 47.961C13.1875 47.921 13.1685 47.87 13.1685 47.808V47.787C13.1385 47.861 13.0885 47.919 13.0185 47.961C12.9485 48.003 12.8665 48.024 12.7725 48.024C12.6725 48.024 12.5815 48.004 12.4995 47.964C12.4195 47.924 12.3555 47.868 12.3075 47.796C12.2615 47.724 12.2385 47.644 12.2385 47.556C12.2385 47.448 12.2655 47.363 12.3195 47.301C12.3755 47.239 12.4645 47.194 12.5865 47.166C12.7085 47.138 12.8755 47.124 13.0875 47.124H13.1655V47.07C13.1655 46.986 13.1465 46.925 13.1085 46.887C13.0725 46.849 13.0115 46.83 12.9255 46.83C12.8395 46.83 12.7155 46.86 12.5535 46.92C12.5075 46.942 12.4685 46.953 12.4365 46.953C12.3925 46.953 12.3575 46.938 12.3315 46.908C12.3055 46.876 12.2925 46.835 12.2925 46.785C12.2925 46.745 12.3015 46.712 12.3195 46.686C12.3375 46.66 12.3665 46.636 12.4065 46.614C12.4765 46.576 12.5615 46.546 12.6615 46.524C12.7635 46.502 12.8635 46.491 12.9615 46.491ZM12.8715 47.712C12.9595 47.712 13.0305 47.683 13.0845 47.625C13.1385 47.565 13.1655 47.488 13.1655 47.394V47.343H13.1145C12.9525 47.343 12.8385 47.356 12.7725 47.382C12.7085 47.408 12.6765 47.455 12.6765 47.523C12.6765 47.579 12.6945 47.625 12.7305 47.661C12.7685 47.695 12.8155 47.712 12.8715 47.712ZM15.5931 47.688C15.6531 47.692 15.6971 47.707 15.7251 47.733C15.7531 47.759 15.7671 47.797 15.7671 47.847C15.7671 47.905 15.7441 47.949 15.6981 47.979C15.6521 48.009 15.5861 48.021 15.5001 48.015L15.4161 48.009C15.0661 47.981 14.8911 47.798 14.8911 47.46V46.866H14.7711C14.7051 46.866 14.6551 46.852 14.6211 46.824C14.5871 46.794 14.5701 46.752 14.5701 46.698C14.5701 46.642 14.5871 46.6 14.6211 46.572C14.6551 46.542 14.7051 46.527 14.7711 46.527H14.8911V46.293C14.8911 46.227 14.9111 46.175 14.9511 46.137C14.9931 46.099 15.0491 46.08 15.1191 46.08C15.1891 46.08 15.2441 46.099 15.2841 46.137C15.3241 46.175 15.3441 46.227 15.3441 46.293V46.527H15.5541C15.6901 46.527 15.7581 46.584 15.7581 46.698C15.7581 46.752 15.7411 46.794 15.7071 46.824C15.6731 46.852 15.6221 46.866 15.5541 46.866H15.3441V47.493C15.3441 47.553 15.3581 47.599 15.3861 47.631C15.4141 47.661 15.4551 47.678 15.5091 47.682L15.5931 47.688ZM16.5973 46.491C16.8133 46.491 16.9733 46.544 17.0773 46.65C17.1813 46.754 17.2333 46.914 17.2333 47.13V47.808C17.2333 47.874 17.2143 47.926 17.1763 47.964C17.1383 48 17.0853 48.018 17.0173 48.018C16.9533 48.018 16.9013 47.999 16.8613 47.961C16.8233 47.921 16.8043 47.87 16.8043 47.808V47.787C16.7743 47.861 16.7243 47.919 16.6543 47.961C16.5843 48.003 16.5023 48.024 16.4083 48.024C16.3083 48.024 16.2173 48.004 16.1353 47.964C16.0553 47.924 15.9913 47.868 15.9433 47.796C15.8973 47.724 15.8743 47.644 15.8743 47.556C15.8743 47.448 15.9013 47.363 15.9553 47.301C16.0113 47.239 16.1003 47.194 16.2223 47.166C16.3443 47.138 16.5113 47.124 16.7233 47.124H16.8013V47.07C16.8013 46.986 16.7823 46.925 16.7443 46.887C16.7083 46.849 16.6473 46.83 16.5613 46.83C16.4753 46.83 16.3513 46.86 16.1893 46.92C16.1433 46.942 16.1043 46.953 16.0723 46.953C16.0283 46.953 15.9933 46.938 15.9673 46.908C15.9413 46.876 15.9283 46.835 15.9283 46.785C15.9283 46.745 15.9373 46.712 15.9553 46.686C15.9733 46.66 16.0023 46.636 16.0423 46.614C16.1123 46.576 16.1973 46.546 16.2973 46.524C16.3993 46.502 16.4993 46.491 16.5973 46.491ZM16.5073 47.712C16.5953 47.712 16.6663 47.683 16.7203 47.625C16.7743 47.565 16.8013 47.488 16.8013 47.394V47.343H16.7503C16.5883 47.343 16.4743 47.356 16.4083 47.382C16.3443 47.408 16.3123 47.455 16.3123 47.523C16.3123 47.579 16.3303 47.625 16.3663 47.661C16.4043 47.695 16.4513 47.712 16.5073 47.712ZM18.1299 48.024C18.0079 48.024 17.9019 48.014 17.8119 47.994C17.7219 47.974 17.6429 47.942 17.5749 47.898C17.5449 47.88 17.5219 47.856 17.5059 47.826C17.4899 47.796 17.4819 47.762 17.4819 47.724C17.4819 47.678 17.4949 47.64 17.5209 47.61C17.5469 47.578 17.5789 47.562 17.6169 47.562C17.6429 47.562 17.6689 47.567 17.6949 47.577C17.7209 47.585 17.7479 47.595 17.7759 47.607C17.8319 47.633 17.8869 47.654 17.9409 47.67C17.9949 47.684 18.0619 47.691 18.1419 47.691C18.2119 47.691 18.2659 47.68 18.3039 47.658C18.3439 47.636 18.3639 47.606 18.3639 47.568C18.3639 47.54 18.3549 47.518 18.3369 47.502C18.3209 47.484 18.2899 47.468 18.2439 47.454C18.1979 47.44 18.1249 47.423 18.0249 47.403C17.8469 47.369 17.7189 47.318 17.6409 47.25C17.5629 47.182 17.5239 47.087 17.5239 46.965C17.5239 46.875 17.5509 46.794 17.6049 46.722C17.6609 46.65 17.7369 46.594 17.8329 46.554C17.9289 46.512 18.0369 46.491 18.1569 46.491C18.2429 46.491 18.3269 46.502 18.4089 46.524C18.4909 46.546 18.5639 46.577 18.6279 46.617C18.6899 46.655 18.7209 46.711 18.7209 46.785C18.7209 46.833 18.7079 46.873 18.6819 46.905C18.6559 46.937 18.6239 46.953 18.5859 46.953C18.5399 46.953 18.4849 46.935 18.4209 46.899C18.3709 46.873 18.3249 46.854 18.2829 46.842C18.2429 46.828 18.1949 46.821 18.1389 46.821C18.0769 46.821 18.0279 46.833 17.9919 46.857C17.9559 46.879 17.9379 46.91 17.9379 46.95C17.9379 46.992 17.9589 47.024 18.0009 47.046C18.0429 47.068 18.1239 47.09 18.2439 47.112C18.3779 47.138 18.4829 47.17 18.5589 47.208C18.6349 47.244 18.6899 47.29 18.7239 47.346C18.7579 47.402 18.7749 47.473 18.7749 47.559C18.7749 47.701 18.7159 47.814 18.5979 47.898C18.4819 47.982 18.3259 48.024 18.1299 48.024ZM20.4229 47.649C20.4689 47.693 20.4919 47.743 20.4919 47.799C20.4919 47.855 20.4709 47.905 20.4289 47.949C20.3889 47.993 20.3419 48.015 20.2879 48.015C20.2359 48.015 20.1879 47.994 20.1439 47.952L19.4869 47.343V47.802C19.4869 47.872 19.4649 47.925 19.4209 47.961C19.3789 47.997 19.3259 48.015 19.2619 48.015C19.1959 48.015 19.1409 47.997 19.0969 47.961C19.0549 47.925 19.0339 47.872 19.0339 47.802V46.083C19.0339 46.013 19.0549 45.96 19.0969 45.924C19.1409 45.888 19.1959 45.87 19.2619 45.87C19.3259 45.87 19.3789 45.888 19.4209 45.924C19.4649 45.96 19.4869 46.013 19.4869 46.083V47.157L20.0869 46.566C20.1309 46.522 20.1799 46.5 20.2339 46.5C20.2899 46.5 20.3389 46.521 20.3809 46.563C20.4229 46.603 20.4439 46.651 20.4439 46.707C20.4439 46.759 20.4209 46.808 20.3749 46.854L19.9759 47.235L20.4229 47.649Z" fill="white"/>
<path d="M50.6456 3.405C50.4236 3.049 50.3126 2.651 50.3126 2.211C50.3126 1.767 50.4236 1.367 50.6456 1.011C50.6736 0.965 50.7066 0.931 50.7446 0.909C50.7846 0.885 50.8236 0.873 50.8616 0.873C50.9016 0.873 50.9346 0.886 50.9606 0.912C50.9886 0.936 51.0026 0.969 51.0026 1.011C51.0026 1.037 50.9966 1.067 50.9846 1.101C50.9126 1.283 50.8596 1.464 50.8256 1.644C50.7936 1.824 50.7776 2.013 50.7776 2.211C50.7776 2.409 50.7936 2.597 50.8256 2.775C50.8596 2.953 50.9126 3.133 50.9846 3.315C50.9966 3.349 51.0026 3.379 51.0026 3.405C51.0026 3.447 50.9886 3.48 50.9606 3.504C50.9346 3.53 50.9016 3.543 50.8616 3.543C50.8236 3.543 50.7846 3.531 50.7446 3.507C50.7066 3.485 50.6736 3.451 50.6456 3.405ZM52.6166 2.625C52.7646 2.625 52.8386 2.687 52.8386 2.811C52.8386 2.937 52.7646 3 52.6166 3H51.5006C51.4386 3 51.3886 2.982 51.3506 2.946C51.3146 2.908 51.2966 2.861 51.2966 2.805C51.2966 2.733 51.3256 2.667 51.3836 2.607L52.0436 1.908C52.1916 1.752 52.2656 1.608 52.2656 1.476C52.2656 1.394 52.2426 1.332 52.1966 1.29C52.1506 1.246 52.0836 1.224 51.9956 1.224C51.9196 1.224 51.8496 1.237 51.7856 1.263C51.7216 1.289 51.6476 1.327 51.5636 1.377C51.5296 1.397 51.5036 1.411 51.4856 1.419C51.4676 1.427 51.4466 1.431 51.4226 1.431C51.3806 1.431 51.3446 1.412 51.3146 1.374C51.2846 1.334 51.2696 1.288 51.2696 1.236C51.2696 1.198 51.2756 1.167 51.2876 1.143C51.3016 1.117 51.3236 1.094 51.3536 1.074C51.4436 1.008 51.5466 0.956 51.6626 0.918C51.7806 0.878 51.8986 0.858 52.0166 0.858C52.1586 0.858 52.2826 0.882 52.3886 0.93C52.4966 0.978 52.5796 1.047 52.6376 1.137C52.6956 1.225 52.7246 1.327 52.7246 1.443C52.7246 1.565 52.6986 1.678 52.6466 1.782C52.5966 1.886 52.5116 2.002 52.3916 2.13L51.9206 2.625H52.6166ZM53.4374 3.405C53.4094 3.451 53.3754 3.485 53.3354 3.507C53.2974 3.531 53.2594 3.543 53.2214 3.543C53.1814 3.543 53.1474 3.53 53.1194 3.504C53.0934 3.48 53.0804 3.447 53.0804 3.405C53.0804 3.379 53.0864 3.349 53.0984 3.315C53.1704 3.133 53.2224 2.953 53.2544 2.775C53.2884 2.597 53.3054 2.409 53.3054 2.211C53.3054 2.013 53.2884 1.824 53.2544 1.644C53.2224 1.464 53.1704 1.283 53.0984 1.101C53.0864 1.067 53.0804 1.037 53.0804 1.011C53.0804 0.969 53.0934 0.936 53.1194 0.912C53.1474 0.886 53.1814 0.873 53.2214 0.873C53.2594 0.873 53.2974 0.885 53.3354 0.909C53.3754 0.931 53.4094 0.965 53.4374 1.011C53.6574 1.363 53.7674 1.763 53.7674 2.211C53.7674 2.655 53.6574 3.053 53.4374 3.405ZM57.7373 1.011C57.7553 0.963 57.7823 0.927 57.8183 0.903C57.8563 0.877 57.8983 0.864 57.9443 0.864C58.0023 0.864 58.0513 0.882 58.0913 0.918C58.1333 0.954 58.1543 1.003 58.1543 1.065C58.1543 1.095 58.1483 1.128 58.1363 1.164L57.5123 2.871C57.4943 2.919 57.4623 2.957 57.4163 2.985C57.3723 3.011 57.3233 3.024 57.2693 3.024C57.2153 3.024 57.1663 3.011 57.1223 2.985C57.0783 2.957 57.0473 2.919 57.0293 2.871L56.5823 1.608L56.1233 2.871C56.1053 2.919 56.0743 2.957 56.0303 2.985C55.9863 3.011 55.9373 3.024 55.8833 3.024C55.8313 3.024 55.7823 3.011 55.7363 2.985C55.6923 2.957 55.6613 2.919 55.6433 2.871L55.0193 1.164C55.0073 1.13 55.0013 1.098 55.0013 1.068C55.0013 1.006 55.0233 0.957 55.0673 0.921C55.1113 0.883 55.1633 0.864 55.2233 0.864C55.2713 0.864 55.3143 0.877 55.3523 0.903C55.3923 0.927 55.4213 0.963 55.4393 1.011L55.9013 2.34L56.3813 1.017C56.3993 0.969 56.4273 0.932 56.4653 0.906C56.5053 0.88 56.5473 0.867 56.5913 0.867C56.6373 0.867 56.6793 0.88 56.7173 0.906C56.7553 0.932 56.7833 0.97 56.8013 1.02L57.2603 2.364L57.7373 1.011ZM58.9543 3.024C58.7983 3.024 58.6613 2.993 58.5433 2.931C58.4253 2.867 58.3343 2.778 58.2703 2.664C58.2063 2.548 58.1743 2.412 58.1743 2.256C58.1743 2.1 58.2063 1.965 58.2703 1.851C58.3343 1.735 58.4253 1.646 58.5433 1.584C58.6613 1.522 58.7983 1.491 58.9543 1.491C59.1103 1.491 59.2473 1.522 59.3653 1.584C59.4833 1.646 59.5743 1.735 59.6383 1.851C59.7023 1.965 59.7343 2.1 59.7343 2.256C59.7343 2.412 59.7023 2.548 59.6383 2.664C59.5743 2.778 59.4833 2.867 59.3653 2.931C59.2473 2.993 59.1103 3.024 58.9543 3.024ZM58.9543 2.679C59.1743 2.679 59.2843 2.538 59.2843 2.256C59.2843 2.114 59.2553 2.008 59.1973 1.938C59.1413 1.868 59.0603 1.833 58.9543 1.833C58.7343 1.833 58.6243 1.974 58.6243 2.256C58.6243 2.538 58.7343 2.679 58.9543 2.679ZM60.8889 1.497C60.9489 1.493 60.9959 1.507 61.0299 1.539C61.0659 1.569 61.0839 1.615 61.0839 1.677C61.0839 1.743 61.0679 1.792 61.0359 1.824C61.0039 1.856 60.9469 1.876 60.8649 1.884L60.7749 1.893C60.6649 1.905 60.5849 1.941 60.5349 2.001C60.4869 2.061 60.4629 2.138 60.4629 2.232V2.805C60.4629 2.875 60.4409 2.928 60.3969 2.964C60.3549 3 60.3019 3.018 60.2379 3.018C60.1719 3.018 60.1169 3 60.0729 2.964C60.0309 2.928 60.0099 2.875 60.0099 2.805V1.704C60.0099 1.638 60.0319 1.587 60.0759 1.551C60.1199 1.515 60.1729 1.497 60.2349 1.497C60.2949 1.497 60.3449 1.515 60.3849 1.551C60.4249 1.585 60.4449 1.633 60.4449 1.695V1.776C60.4809 1.69 60.5349 1.624 60.6069 1.578C60.6809 1.532 60.7609 1.506 60.8469 1.5L60.8889 1.497ZM62.603 2.649C62.649 2.693 62.672 2.743 62.672 2.799C62.672 2.855 62.651 2.905 62.609 2.949C62.569 2.993 62.522 3.015 62.468 3.015C62.416 3.015 62.368 2.994 62.324 2.952L61.667 2.343V2.802C61.667 2.872 61.645 2.925 61.601 2.961C61.559 2.997 61.506 3.015 61.442 3.015C61.376 3.015 61.321 2.997 61.277 2.961C61.235 2.925 61.214 2.872 61.214 2.802V1.083C61.214 1.013 61.235 0.96 61.277 0.924C61.321 0.888 61.376 0.87 61.442 0.87C61.506 0.87 61.559 0.888 61.601 0.924C61.645 0.96 61.667 1.013 61.667 1.083V2.157L62.267 1.566C62.311 1.522 62.36 1.5 62.414 1.5C62.47 1.5 62.519 1.521 62.561 1.563C62.603 1.603 62.624 1.651 62.624 1.707C62.624 1.759 62.601 1.808 62.555 1.854L62.156 2.235L62.603 2.649ZM64.4328 3.024C64.2768 3.024 64.1398 2.993 64.0218 2.931C63.9038 2.867 63.8128 2.778 63.7488 2.664C63.6848 2.548 63.6528 2.412 63.6528 2.256C63.6528 2.1 63.6848 1.965 63.7488 1.851C63.8128 1.735 63.9038 1.646 64.0218 1.584C64.1398 1.522 64.2768 1.491 64.4328 1.491C64.5888 1.491 64.7258 1.522 64.8438 1.584C64.9618 1.646 65.0528 1.735 65.1168 1.851C65.1808 1.965 65.2128 2.1 65.2128 2.256C65.2128 2.412 65.1808 2.548 65.1168 2.664C65.0528 2.778 64.9618 2.867 64.8438 2.931C64.7258 2.993 64.5888 3.024 64.4328 3.024ZM64.4328 2.679C64.6528 2.679 64.7628 2.538 64.7628 2.256C64.7628 2.114 64.7338 2.008 64.6758 1.938C64.6198 1.868 64.5388 1.833 64.4328 1.833C64.2128 1.833 64.1028 1.974 64.1028 2.256C64.1028 2.538 64.2128 2.679 64.4328 2.679ZM66.4125 1.491C66.5885 1.491 66.7195 1.543 66.8055 1.647C66.8915 1.749 66.9345 1.904 66.9345 2.112V2.805C66.9345 2.871 66.9135 2.923 66.8715 2.961C66.8315 2.999 66.7765 3.018 66.7065 3.018C66.6365 3.018 66.5815 2.999 66.5415 2.961C66.5015 2.923 66.4815 2.871 66.4815 2.805V2.133C66.4815 2.033 66.4625 1.96 66.4245 1.914C66.3885 1.868 66.3315 1.845 66.2535 1.845C66.1595 1.845 66.0835 1.875 66.0255 1.935C65.9695 1.995 65.9415 2.075 65.9415 2.175V2.805C65.9415 2.871 65.9215 2.923 65.8815 2.961C65.8415 2.999 65.7865 3.018 65.7165 3.018C65.6465 3.018 65.5905 2.999 65.5485 2.961C65.5085 2.923 65.4885 2.871 65.4885 2.805V1.704C65.4885 1.642 65.5095 1.592 65.5515 1.554C65.5955 1.516 65.6515 1.497 65.7195 1.497C65.7815 1.497 65.8315 1.516 65.8695 1.554C65.9095 1.59 65.9295 1.637 65.9295 1.695V1.737C65.9815 1.657 66.0485 1.596 66.1305 1.554C66.2145 1.512 66.3085 1.491 66.4125 1.491ZM68.3385 3.018C68.2725 3.018 68.2175 3 68.1735 2.964C68.1315 2.928 68.1105 2.875 68.1105 2.805V1.71C68.1105 1.64 68.1325 1.587 68.1765 1.551C68.2205 1.515 68.2745 1.497 68.3385 1.497C68.4025 1.497 68.4555 1.515 68.4975 1.551C68.5415 1.587 68.5635 1.64 68.5635 1.71V2.805C68.5635 2.875 68.5415 2.928 68.4975 2.964C68.4555 3 68.4025 3.018 68.3385 3.018ZM68.3385 1.257C68.2585 1.257 68.1955 1.237 68.1495 1.197C68.1035 1.155 68.0805 1.099 68.0805 1.029C68.0805 0.959 68.1035 0.904 68.1495 0.864C68.1955 0.824 68.2585 0.804 68.3385 0.804C68.4165 0.804 68.4785 0.825 68.5245 0.867C68.5725 0.907 68.5965 0.961 68.5965 1.029C68.5965 1.099 68.5735 1.155 68.5275 1.197C68.4815 1.237 68.4185 1.257 68.3385 1.257ZM69.8172 2.688C69.8772 2.692 69.9212 2.707 69.9492 2.733C69.9772 2.759 69.9912 2.797 69.9912 2.847C69.9912 2.905 69.9682 2.949 69.9222 2.979C69.8762 3.009 69.8102 3.021 69.7242 3.015L69.6402 3.009C69.2902 2.981 69.1152 2.798 69.1152 2.46V1.866H68.9952C68.9292 1.866 68.8792 1.852 68.8452 1.824C68.8112 1.794 68.7942 1.752 68.7942 1.698C68.7942 1.642 68.8112 1.6 68.8452 1.572C68.8792 1.542 68.9292 1.527 68.9952 1.527H69.1152V1.293C69.1152 1.227 69.1352 1.175 69.1752 1.137C69.2172 1.099 69.2732 1.08 69.3432 1.08C69.4132 1.08 69.4682 1.099 69.5082 1.137C69.5482 1.175 69.5682 1.227 69.5682 1.293V1.527H69.7782C69.9142 1.527 69.9822 1.584 69.9822 1.698C69.9822 1.752 69.9652 1.794 69.9312 1.824C69.8972 1.852 69.8462 1.866 69.7782 1.866H69.5682V2.493C69.5682 2.553 69.5822 2.599 69.6102 2.631C69.6382 2.661 69.6792 2.678 69.7332 2.682L69.8172 2.688Z" fill="white"/>
<path d="M94.9733 54.405C94.7513 54.049 94.6403 53.651 94.6403 53.211C94.6403 52.767 94.7513 52.367 94.9733 52.011C95.0013 51.965 95.0343 51.931 95.0723 51.909C95.1123 51.885 95.1513 51.873 95.1893 51.873C95.2293 51.873 95.2623 51.886 95.2883 51.912C95.3163 51.936 95.3303 51.969 95.3303 52.011C95.3303 52.037 95.3243 52.067 95.3123 52.101C95.2403 52.283 95.1873 52.464 95.1533 52.644C95.1213 52.824 95.1053 53.013 95.1053 53.211C95.1053 53.409 95.1213 53.597 95.1533 53.775C95.1873 53.953 95.2403 54.133 95.3123 54.315C95.3243 54.349 95.3303 54.379 95.3303 54.405C95.3303 54.447 95.3163 54.48 95.2883 54.504C95.2623 54.53 95.2293 54.543 95.1893 54.543C95.1513 54.543 95.1123 54.531 95.0723 54.507C95.0343 54.485 95.0013 54.451 94.9733 54.405ZM96.7193 52.911C96.8433 52.947 96.9383 53.01 97.0043 53.1C97.0723 53.188 97.1063 53.296 97.1063 53.424C97.1063 53.546 97.0743 53.652 97.0103 53.742C96.9483 53.832 96.8583 53.902 96.7403 53.952C96.6223 54 96.4853 54.024 96.3293 54.024C96.1993 54.024 96.0743 54.005 95.9543 53.967C95.8363 53.929 95.7343 53.876 95.6483 53.808C95.6183 53.786 95.5963 53.762 95.5823 53.736C95.5703 53.71 95.5643 53.68 95.5643 53.646C95.5643 53.594 95.5793 53.55 95.6093 53.514C95.6393 53.476 95.6753 53.457 95.7173 53.457C95.7413 53.457 95.7633 53.461 95.7833 53.469C95.8033 53.475 95.8283 53.487 95.8583 53.505C95.9463 53.555 96.0223 53.593 96.0863 53.619C96.1503 53.645 96.2253 53.658 96.3113 53.658C96.4333 53.658 96.5223 53.636 96.5783 53.592C96.6343 53.546 96.6623 53.475 96.6623 53.379C96.6623 53.285 96.6333 53.217 96.5753 53.175C96.5173 53.133 96.4243 53.112 96.2963 53.112H96.1193C96.0673 53.112 96.0263 53.094 95.9963 53.058C95.9663 53.022 95.9513 52.979 95.9513 52.929C95.9513 52.881 95.9663 52.839 95.9963 52.803C96.0263 52.767 96.0673 52.749 96.1193 52.749H96.2453C96.3673 52.749 96.4573 52.728 96.5153 52.686C96.5753 52.644 96.6053 52.579 96.6053 52.491C96.6053 52.407 96.5803 52.342 96.5303 52.296C96.4803 52.248 96.4103 52.224 96.3203 52.224C96.2463 52.224 96.1773 52.237 96.1133 52.263C96.0493 52.289 95.9753 52.327 95.8913 52.377C95.8613 52.395 95.8363 52.408 95.8163 52.416C95.7963 52.422 95.7743 52.425 95.7503 52.425C95.7083 52.425 95.6723 52.407 95.6423 52.371C95.6123 52.333 95.5973 52.288 95.5973 52.236C95.5973 52.2 95.6033 52.17 95.6153 52.146C95.6293 52.12 95.6513 52.096 95.6813 52.074C95.7653 52.006 95.8653 51.953 95.9813 51.915C96.0993 51.877 96.2193 51.858 96.3413 51.858C96.4833 51.858 96.6083 51.882 96.7163 51.93C96.8243 51.976 96.9073 52.042 96.9653 52.128C97.0233 52.214 97.0523 52.314 97.0523 52.428C97.0523 52.542 97.0223 52.642 96.9623 52.728C96.9043 52.812 96.8233 52.873 96.7193 52.911ZM97.7621 54.405C97.7341 54.451 97.7001 54.485 97.6601 54.507C97.6221 54.531 97.5841 54.543 97.5461 54.543C97.5061 54.543 97.4721 54.53 97.4441 54.504C97.4181 54.48 97.4051 54.447 97.4051 54.405C97.4051 54.379 97.4111 54.349 97.4231 54.315C97.4951 54.133 97.5471 53.953 97.5791 53.775C97.6131 53.597 97.6301 53.409 97.6301 53.211C97.6301 53.013 97.6131 52.824 97.5791 52.644C97.5471 52.464 97.4951 52.283 97.4231 52.101C97.4111 52.067 97.4051 52.037 97.4051 52.011C97.4051 51.969 97.4181 51.936 97.4441 51.912C97.4721 51.886 97.5061 51.873 97.5461 51.873C97.5841 51.873 97.6221 51.885 97.6601 51.909C97.7001 51.931 97.7341 51.965 97.7621 52.011C97.9821 52.363 98.0921 52.763 98.0921 53.211C98.0921 53.655 97.9821 54.053 97.7621 54.405ZM101.318 51.87C101.384 51.87 101.437 51.892 101.477 51.936C101.519 51.978 101.54 52.033 101.54 52.101V53.805C101.54 53.871 101.521 53.923 101.483 53.961C101.445 53.999 101.395 54.018 101.333 54.018C101.273 54.018 101.224 53.999 101.186 53.961C101.148 53.923 101.129 53.871 101.129 53.805V52.746L100.703 53.547C100.675 53.599 100.644 53.637 100.61 53.661C100.578 53.685 100.539 53.697 100.493 53.697C100.449 53.697 100.41 53.685 100.376 53.661C100.342 53.637 100.311 53.599 100.283 53.547L99.857 52.761V53.805C99.857 53.869 99.838 53.921 99.8 53.961C99.762 53.999 99.712 54.018 99.65 54.018C99.59 54.018 99.541 53.999 99.503 53.961C99.465 53.923 99.446 53.871 99.446 53.805V52.101C99.446 52.033 99.466 51.978 99.506 51.936C99.548 51.892 99.602 51.87 99.668 51.87C99.764 51.87 99.837 51.921 99.887 52.023L100.496 53.178L101.102 52.023C101.156 51.921 101.228 51.87 101.318 51.87ZM102.592 52.491C102.808 52.491 102.968 52.544 103.072 52.65C103.176 52.754 103.228 52.914 103.228 53.13V53.808C103.228 53.874 103.209 53.926 103.171 53.964C103.133 54 103.08 54.018 103.012 54.018C102.948 54.018 102.896 53.999 102.856 53.961C102.818 53.921 102.799 53.87 102.799 53.808V53.787C102.769 53.861 102.719 53.919 102.649 53.961C102.579 54.003 102.497 54.024 102.403 54.024C102.303 54.024 102.212 54.004 102.13 53.964C102.05 53.924 101.986 53.868 101.938 53.796C101.892 53.724 101.869 53.644 101.869 53.556C101.869 53.448 101.896 53.363 101.95 53.301C102.006 53.239 102.095 53.194 102.217 53.166C102.339 53.138 102.506 53.124 102.718 53.124H102.796V53.07C102.796 52.986 102.777 52.925 102.739 52.887C102.703 52.849 102.642 52.83 102.556 52.83C102.47 52.83 102.346 52.86 102.184 52.92C102.138 52.942 102.099 52.953 102.067 52.953C102.023 52.953 101.988 52.938 101.962 52.908C101.936 52.876 101.923 52.835 101.923 52.785C101.923 52.745 101.932 52.712 101.95 52.686C101.968 52.66 101.997 52.636 102.037 52.614C102.107 52.576 102.192 52.546 102.292 52.524C102.394 52.502 102.494 52.491 102.592 52.491ZM102.502 53.712C102.59 53.712 102.661 53.683 102.715 53.625C102.769 53.565 102.796 53.488 102.796 53.394V53.343H102.745C102.583 53.343 102.469 53.356 102.403 53.382C102.339 53.408 102.307 53.455 102.307 53.523C102.307 53.579 102.325 53.625 102.361 53.661C102.399 53.695 102.446 53.712 102.502 53.712ZM104.956 53.649C105.002 53.693 105.025 53.743 105.025 53.799C105.025 53.855 105.004 53.905 104.962 53.949C104.922 53.993 104.875 54.015 104.821 54.015C104.769 54.015 104.721 53.994 104.677 53.952L104.02 53.343V53.802C104.02 53.872 103.998 53.925 103.954 53.961C103.912 53.997 103.859 54.015 103.795 54.015C103.729 54.015 103.674 53.997 103.63 53.961C103.588 53.925 103.567 53.872 103.567 53.802V52.083C103.567 52.013 103.588 51.96 103.63 51.924C103.674 51.888 103.729 51.87 103.795 51.87C103.859 51.87 103.912 51.888 103.954 51.924C103.998 51.96 104.02 52.013 104.02 52.083V53.157L104.62 52.566C104.664 52.522 104.713 52.5 104.767 52.5C104.823 52.5 104.872 52.521 104.914 52.563C104.956 52.603 104.977 52.651 104.977 52.707C104.977 52.759 104.954 52.808 104.908 52.854L104.509 53.235L104.956 53.649ZM106.407 53.562C106.447 53.562 106.479 53.578 106.503 53.61C106.529 53.642 106.542 53.683 106.542 53.733C106.542 53.767 106.532 53.799 106.512 53.829C106.492 53.857 106.464 53.881 106.428 53.901C106.36 53.937 106.281 53.967 106.191 53.991C106.101 54.013 106.018 54.024 105.942 54.024C105.782 54.024 105.642 53.993 105.522 53.931C105.404 53.869 105.313 53.781 105.249 53.667C105.185 53.551 105.153 53.415 105.153 53.259C105.153 53.109 105.184 52.976 105.246 52.86C105.308 52.744 105.394 52.654 105.504 52.59C105.614 52.524 105.739 52.491 105.879 52.491C106.013 52.491 106.13 52.521 106.23 52.581C106.332 52.639 106.411 52.723 106.467 52.833C106.523 52.941 106.551 53.068 106.551 53.214C106.551 53.258 106.54 53.292 106.518 53.316C106.498 53.338 106.469 53.349 106.431 53.349H105.591C105.605 53.467 105.641 53.553 105.699 53.607C105.757 53.659 105.84 53.685 105.948 53.685C106.006 53.685 106.058 53.678 106.104 53.664C106.15 53.65 106.201 53.631 106.257 53.607C106.285 53.595 106.312 53.585 106.338 53.577C106.364 53.567 106.387 53.562 106.407 53.562ZM105.891 52.803C105.805 52.803 105.736 52.831 105.684 52.887C105.632 52.941 105.601 53.02 105.591 53.124H106.17C106.164 53.018 106.137 52.938 106.089 52.884C106.043 52.83 105.977 52.803 105.891 52.803ZM108.326 52.491C108.542 52.491 108.702 52.544 108.806 52.65C108.91 52.754 108.962 52.914 108.962 53.13V53.808C108.962 53.874 108.943 53.926 108.905 53.964C108.867 54 108.814 54.018 108.746 54.018C108.682 54.018 108.63 53.999 108.59 53.961C108.552 53.921 108.533 53.87 108.533 53.808V53.787C108.503 53.861 108.453 53.919 108.383 53.961C108.313 54.003 108.231 54.024 108.137 54.024C108.037 54.024 107.946 54.004 107.864 53.964C107.784 53.924 107.72 53.868 107.672 53.796C107.626 53.724 107.603 53.644 107.603 53.556C107.603 53.448 107.63 53.363 107.684 53.301C107.74 53.239 107.829 53.194 107.951 53.166C108.073 53.138 108.24 53.124 108.452 53.124H108.53V53.07C108.53 52.986 108.511 52.925 108.473 52.887C108.437 52.849 108.376 52.83 108.29 52.83C108.204 52.83 108.08 52.86 107.918 52.92C107.872 52.942 107.833 52.953 107.801 52.953C107.757 52.953 107.722 52.938 107.696 52.908C107.67 52.876 107.657 52.835 107.657 52.785C107.657 52.745 107.666 52.712 107.684 52.686C107.702 52.66 107.731 52.636 107.771 52.614C107.841 52.576 107.926 52.546 108.026 52.524C108.128 52.502 108.228 52.491 108.326 52.491ZM108.236 53.712C108.324 53.712 108.395 53.683 108.449 53.625C108.503 53.565 108.53 53.488 108.53 53.394V53.343H108.479C108.317 53.343 108.203 53.356 108.137 53.382C108.073 53.408 108.041 53.455 108.041 53.523C108.041 53.579 108.059 53.625 108.095 53.661C108.133 53.695 108.18 53.712 108.236 53.712ZM110.696 54.024C110.574 54.024 110.468 54.014 110.378 53.994C110.288 53.974 110.209 53.942 110.141 53.898C110.111 53.88 110.088 53.856 110.072 53.826C110.056 53.796 110.048 53.762 110.048 53.724C110.048 53.678 110.061 53.64 110.087 53.61C110.113 53.578 110.145 53.562 110.183 53.562C110.209 53.562 110.235 53.567 110.261 53.577C110.287 53.585 110.314 53.595 110.342 53.607C110.398 53.633 110.453 53.654 110.507 53.67C110.561 53.684 110.628 53.691 110.708 53.691C110.778 53.691 110.832 53.68 110.87 53.658C110.91 53.636 110.93 53.606 110.93 53.568C110.93 53.54 110.921 53.518 110.903 53.502C110.887 53.484 110.856 53.468 110.81 53.454C110.764 53.44 110.691 53.423 110.591 53.403C110.413 53.369 110.285 53.318 110.207 53.25C110.129 53.182 110.09 53.087 110.09 52.965C110.09 52.875 110.117 52.794 110.171 52.722C110.227 52.65 110.303 52.594 110.399 52.554C110.495 52.512 110.603 52.491 110.723 52.491C110.809 52.491 110.893 52.502 110.975 52.524C111.057 52.546 111.13 52.577 111.194 52.617C111.256 52.655 111.287 52.711 111.287 52.785C111.287 52.833 111.274 52.873 111.248 52.905C111.222 52.937 111.19 52.953 111.152 52.953C111.106 52.953 111.051 52.935 110.987 52.899C110.937 52.873 110.891 52.854 110.849 52.842C110.809 52.828 110.761 52.821 110.705 52.821C110.643 52.821 110.594 52.833 110.558 52.857C110.522 52.879 110.504 52.91 110.504 52.95C110.504 52.992 110.525 53.024 110.567 53.046C110.609 53.068 110.69 53.09 110.81 53.112C110.944 53.138 111.049 53.17 111.125 53.208C111.201 53.244 111.256 53.29 111.29 53.346C111.324 53.402 111.341 53.473 111.341 53.559C111.341 53.701 111.282 53.814 111.164 53.898C111.048 53.982 110.892 54.024 110.696 54.024ZM112.405 53.688C112.465 53.692 112.509 53.707 112.537 53.733C112.565 53.759 112.579 53.797 112.579 53.847C112.579 53.905 112.556 53.949 112.51 53.979C112.464 54.009 112.398 54.021 112.312 54.015L112.228 54.009C111.878 53.981 111.703 53.798 111.703 53.46V52.866H111.583C111.517 52.866 111.467 52.852 111.433 52.824C111.399 52.794 111.382 52.752 111.382 52.698C111.382 52.642 111.399 52.6 111.433 52.572C111.467 52.542 111.517 52.527 111.583 52.527H111.703V52.293C111.703 52.227 111.723 52.175 111.763 52.137C111.805 52.099 111.861 52.08 111.931 52.08C112.001 52.08 112.056 52.099 112.096 52.137C112.136 52.175 112.156 52.227 112.156 52.293V52.527H112.366C112.502 52.527 112.57 52.584 112.57 52.698C112.57 52.752 112.553 52.794 112.519 52.824C112.485 52.852 112.434 52.866 112.366 52.866H112.156V53.493C112.156 53.553 112.17 53.599 112.198 53.631C112.226 53.661 112.267 53.678 112.321 53.682L112.405 53.688ZM113.625 52.497C113.685 52.493 113.732 52.507 113.766 52.539C113.802 52.569 113.82 52.615 113.82 52.677C113.82 52.743 113.804 52.792 113.772 52.824C113.74 52.856 113.683 52.876 113.601 52.884L113.511 52.893C113.401 52.905 113.321 52.941 113.271 53.001C113.223 53.061 113.199 53.138 113.199 53.232V53.805C113.199 53.875 113.177 53.928 113.133 53.964C113.091 54 113.038 54.018 112.974 54.018C112.908 54.018 112.853 54 112.809 53.964C112.767 53.928 112.746 53.875 112.746 53.805V52.704C112.746 52.638 112.768 52.587 112.812 52.551C112.856 52.515 112.909 52.497 112.971 52.497C113.031 52.497 113.081 52.515 113.121 52.551C113.161 52.585 113.181 52.633 113.181 52.695V52.776C113.217 52.69 113.271 52.624 113.343 52.578C113.417 52.532 113.497 52.506 113.583 52.5L113.625 52.497ZM115.103 53.562C115.143 53.562 115.175 53.578 115.199 53.61C115.225 53.642 115.238 53.683 115.238 53.733C115.238 53.767 115.228 53.799 115.208 53.829C115.188 53.857 115.16 53.881 115.124 53.901C115.056 53.937 114.977 53.967 114.887 53.991C114.797 54.013 114.714 54.024 114.638 54.024C114.478 54.024 114.338 53.993 114.218 53.931C114.1 53.869 114.009 53.781 113.945 53.667C113.881 53.551 113.849 53.415 113.849 53.259C113.849 53.109 113.88 52.976 113.942 52.86C114.004 52.744 114.09 52.654 114.2 52.59C114.31 52.524 114.435 52.491 114.575 52.491C114.709 52.491 114.826 52.521 114.926 52.581C115.028 52.639 115.107 52.723 115.163 52.833C115.219 52.941 115.247 53.068 115.247 53.214C115.247 53.258 115.236 53.292 115.214 53.316C115.194 53.338 115.165 53.349 115.127 53.349H114.287C114.301 53.467 114.337 53.553 114.395 53.607C114.453 53.659 114.536 53.685 114.644 53.685C114.702 53.685 114.754 53.678 114.8 53.664C114.846 53.65 114.897 53.631 114.953 53.607C114.981 53.595 115.008 53.585 115.034 53.577C115.06 53.567 115.083 53.562 115.103 53.562ZM114.587 52.803C114.501 52.803 114.432 52.831 114.38 52.887C114.328 52.941 114.297 53.02 114.287 53.124H114.866C114.86 53.018 114.833 52.938 114.785 52.884C114.739 52.83 114.673 52.803 114.587 52.803ZM116.183 52.491C116.399 52.491 116.559 52.544 116.663 52.65C116.767 52.754 116.819 52.914 116.819 53.13V53.808C116.819 53.874 116.8 53.926 116.762 53.964C116.724 54 116.671 54.018 116.603 54.018C116.539 54.018 116.487 53.999 116.447 53.961C116.409 53.921 116.39 53.87 116.39 53.808V53.787C116.36 53.861 116.31 53.919 116.24 53.961C116.17 54.003 116.088 54.024 115.994 54.024C115.894 54.024 115.803 54.004 115.721 53.964C115.641 53.924 115.577 53.868 115.529 53.796C115.483 53.724 115.46 53.644 115.46 53.556C115.46 53.448 115.487 53.363 115.541 53.301C115.597 53.239 115.686 53.194 115.808 53.166C115.93 53.138 116.097 53.124 116.309 53.124H116.387V53.07C116.387 52.986 116.368 52.925 116.33 52.887C116.294 52.849 116.233 52.83 116.147 52.83C116.061 52.83 115.937 52.86 115.775 52.92C115.729 52.942 115.69 52.953 115.658 52.953C115.614 52.953 115.579 52.938 115.553 52.908C115.527 52.876 115.514 52.835 115.514 52.785C115.514 52.745 115.523 52.712 115.541 52.686C115.559 52.66 115.588 52.636 115.628 52.614C115.698 52.576 115.783 52.546 115.883 52.524C115.985 52.502 116.085 52.491 116.183 52.491ZM116.093 53.712C116.181 53.712 116.252 53.683 116.306 53.625C116.36 53.565 116.387 53.488 116.387 53.394V53.343H116.336C116.174 53.343 116.06 53.356 115.994 53.382C115.93 53.408 115.898 53.455 115.898 53.523C115.898 53.579 115.916 53.625 115.952 53.661C115.99 53.695 116.037 53.712 116.093 53.712ZM118.547 53.649C118.593 53.693 118.616 53.743 118.616 53.799C118.616 53.855 118.595 53.905 118.553 53.949C118.513 53.993 118.466 54.015 118.412 54.015C118.36 54.015 118.312 53.994 118.268 53.952L117.611 53.343V53.802C117.611 53.872 117.589 53.925 117.545 53.961C117.503 53.997 117.45 54.015 117.386 54.015C117.32 54.015 117.265 53.997 117.221 53.961C117.179 53.925 117.158 53.872 117.158 53.802V52.083C117.158 52.013 117.179 51.96 117.221 51.924C117.265 51.888 117.32 51.87 117.386 51.87C117.45 51.87 117.503 51.888 117.545 51.924C117.589 51.96 117.611 52.013 117.611 52.083V53.157L118.211 52.566C118.255 52.522 118.304 52.5 118.358 52.5C118.414 52.5 118.463 52.521 118.505 52.563C118.547 52.603 118.568 52.651 118.568 52.707C118.568 52.759 118.545 52.808 118.499 52.854L118.1 53.235L118.547 53.649Z" fill="white"/>
<path d="M12.3454 35.634C12.448 35.634 12.5344 35.669 12.6044 35.739C12.6744 35.8043 12.7094 35.8883 12.7094 35.991C12.7094 36.0937 12.6744 36.18 12.6044 36.25C12.5344 36.32 12.448 36.355 12.3454 36.355H11.3654V37.342C11.3654 37.4447 11.3304 37.531 11.2604 37.601C11.1904 37.6663 11.104 37.699 11.0014 37.699C10.8987 37.699 10.8124 37.6663 10.7424 37.601C10.6724 37.531 10.6374 37.4447 10.6374 37.342V36.355H9.65737C9.5547 36.355 9.46837 36.32 9.39837 36.25C9.32837 36.18 9.29337 36.0937 9.29337 35.991C9.29337 35.8883 9.32837 35.8043 9.39837 35.739C9.46837 35.669 9.5547 35.634 9.65737 35.634H10.6374V34.647C10.6374 34.5443 10.6724 34.458 10.7424 34.388C10.8124 34.318 10.8987 34.283 11.0014 34.283C11.104 34.283 11.1904 34.318 11.2604 34.388C11.3304 34.458 11.3654 34.5443 11.3654 34.647V35.634H12.3454Z" fill="#4B82D8"/>
<path d="M5.41396 28.015C5.34396 28.015 5.28696 27.994 5.24296 27.952C5.20096 27.91 5.17996 27.854 5.17996 27.784V26.266H4.69396C4.54596 26.266 4.47196 26.202 4.47196 26.074C4.47196 25.948 4.54596 25.885 4.69396 25.885H6.13396C6.28196 25.885 6.35596 25.948 6.35596 26.074C6.35596 26.202 6.28196 26.266 6.13396 26.266H5.64796V27.784C5.64796 27.854 5.62696 27.91 5.58496 27.952C5.54296 27.994 5.48596 28.015 5.41396 28.015ZM6.94393 26.491C7.15993 26.491 7.31993 26.544 7.42393 26.65C7.52793 26.754 7.57993 26.914 7.57993 27.13V27.808C7.57993 27.874 7.56093 27.926 7.52293 27.964C7.48493 28 7.43193 28.018 7.36393 28.018C7.29993 28.018 7.24793 27.999 7.20793 27.961C7.16993 27.921 7.15093 27.87 7.15093 27.808V27.787C7.12093 27.861 7.07093 27.919 7.00093 27.961C6.93093 28.003 6.84893 28.024 6.75493 28.024C6.65493 28.024 6.56393 28.004 6.48193 27.964C6.40193 27.924 6.33793 27.868 6.28993 27.796C6.24393 27.724 6.22093 27.644 6.22093 27.556C6.22093 27.448 6.24793 27.363 6.30193 27.301C6.35793 27.239 6.44693 27.194 6.56893 27.166C6.69093 27.138 6.85793 27.124 7.06993 27.124H7.14793V27.07C7.14793 26.986 7.12893 26.925 7.09093 26.887C7.05493 26.849 6.99393 26.83 6.90793 26.83C6.82193 26.83 6.69793 26.86 6.53593 26.92C6.48993 26.942 6.45093 26.953 6.41893 26.953C6.37493 26.953 6.33993 26.938 6.31393 26.908C6.28793 26.876 6.27493 26.835 6.27493 26.785C6.27493 26.745 6.28393 26.712 6.30193 26.686C6.31993 26.66 6.34893 26.636 6.38893 26.614C6.45893 26.576 6.54393 26.546 6.64393 26.524C6.74593 26.502 6.84593 26.491 6.94393 26.491ZM6.85393 27.712C6.94193 27.712 7.01293 27.683 7.06693 27.625C7.12093 27.565 7.14793 27.488 7.14793 27.394V27.343H7.09693C6.93493 27.343 6.82093 27.356 6.75493 27.382C6.69093 27.408 6.65893 27.455 6.65893 27.523C6.65893 27.579 6.67693 27.625 6.71293 27.661C6.75093 27.695 6.79793 27.712 6.85393 27.712ZM8.47663 28.024C8.35463 28.024 8.24863 28.014 8.15863 27.994C8.06863 27.974 7.98963 27.942 7.92163 27.898C7.89163 27.88 7.86863 27.856 7.85263 27.826C7.83663 27.796 7.82863 27.762 7.82863 27.724C7.82863 27.678 7.84163 27.64 7.86763 27.61C7.89363 27.578 7.92563 27.562 7.96363 27.562C7.98963 27.562 8.01563 27.567 8.04163 27.577C8.06763 27.585 8.09463 27.595 8.12263 27.607C8.17863 27.633 8.23363 27.654 8.28763 27.67C8.34163 27.684 8.40863 27.691 8.48863 27.691C8.55863 27.691 8.61263 27.68 8.65063 27.658C8.69063 27.636 8.71063 27.606 8.71063 27.568C8.71063 27.54 8.70163 27.518 8.68363 27.502C8.66763 27.484 8.63663 27.468 8.59063 27.454C8.54463 27.44 8.47163 27.423 8.37163 27.403C8.19363 27.369 8.06563 27.318 7.98763 27.25C7.90963 27.182 7.87063 27.087 7.87063 26.965C7.87063 26.875 7.89763 26.794 7.95163 26.722C8.00763 26.65 8.08363 26.594 8.17963 26.554C8.27563 26.512 8.38363 26.491 8.50363 26.491C8.58963 26.491 8.67363 26.502 8.75563 26.524C8.83763 26.546 8.91063 26.577 8.97463 26.617C9.03663 26.655 9.06763 26.711 9.06763 26.785C9.06763 26.833 9.05463 26.873 9.02863 26.905C9.00263 26.937 8.97063 26.953 8.93263 26.953C8.88663 26.953 8.83163 26.935 8.76763 26.899C8.71763 26.873 8.67163 26.854 8.62963 26.842C8.58963 26.828 8.54163 26.821 8.48563 26.821C8.42363 26.821 8.37463 26.833 8.33863 26.857C8.30263 26.879 8.28463 26.91 8.28463 26.95C8.28463 26.992 8.30563 27.024 8.34763 27.046C8.38963 27.068 8.47063 27.09 8.59063 27.112C8.72463 27.138 8.82963 27.17 8.90563 27.208C8.98163 27.244 9.03663 27.29 9.07063 27.346C9.10463 27.402 9.12163 27.473 9.12163 27.559C9.12163 27.701 9.06263 27.814 8.94463 27.898C8.82863 27.982 8.67263 28.024 8.47663 28.024ZM10.7695 27.649C10.8155 27.693 10.8385 27.743 10.8385 27.799C10.8385 27.855 10.8175 27.905 10.7755 27.949C10.7355 27.993 10.6885 28.015 10.6345 28.015C10.5825 28.015 10.5345 27.994 10.4905 27.952L9.83354 27.343V27.802C9.83354 27.872 9.81154 27.925 9.76754 27.961C9.72554 27.997 9.67254 28.015 9.60854 28.015C9.54254 28.015 9.48754 27.997 9.44354 27.961C9.40154 27.925 9.38054 27.872 9.38054 27.802V26.083C9.38054 26.013 9.40154 25.96 9.44354 25.924C9.48754 25.888 9.54254 25.87 9.60854 25.87C9.67254 25.87 9.72554 25.888 9.76754 25.924C9.81154 25.96 9.83354 26.013 9.83354 26.083V27.157L10.4335 26.566C10.4775 26.522 10.5265 26.5 10.5805 26.5C10.6365 26.5 10.6855 26.521 10.7275 26.563C10.7695 26.603 10.7905 26.651 10.7905 26.707C10.7905 26.759 10.7675 26.808 10.7215 26.854L10.3225 27.235L10.7695 27.649ZM13.1933 27.625C13.3413 27.625 13.4153 27.687 13.4153 27.811C13.4153 27.937 13.3413 28 13.1933 28H12.0773C12.0153 28 11.9653 27.982 11.9273 27.946C11.8913 27.908 11.8733 27.861 11.8733 27.805C11.8733 27.733 11.9023 27.667 11.9603 27.607L12.6203 26.908C12.7683 26.752 12.8423 26.608 12.8423 26.476C12.8423 26.394 12.8193 26.332 12.7733 26.29C12.7273 26.246 12.6603 26.224 12.5723 26.224C12.4963 26.224 12.4263 26.237 12.3623 26.263C12.2983 26.289 12.2243 26.327 12.1403 26.377C12.1063 26.397 12.0803 26.411 12.0623 26.419C12.0443 26.427 12.0233 26.431 11.9993 26.431C11.9573 26.431 11.9213 26.412 11.8913 26.374C11.8613 26.334 11.8463 26.288 11.8463 26.236C11.8463 26.198 11.8523 26.167 11.8643 26.143C11.8783 26.117 11.9003 26.094 11.9303 26.074C12.0203 26.008 12.1233 25.956 12.2393 25.918C12.3573 25.878 12.4753 25.858 12.5933 25.858C12.7353 25.858 12.8593 25.882 12.9653 25.93C13.0733 25.978 13.1563 26.047 13.2143 26.137C13.2723 26.225 13.3013 26.327 13.3013 26.443C13.3013 26.565 13.2753 26.678 13.2233 26.782C13.1733 26.886 13.0883 27.002 12.9683 27.13L12.4973 27.625H13.1933Z" fill="#4B82D8"/>
<path d="M55.7308 26.4375C55.9528 26.4375 56.0638 26.5305 56.0638 26.7165C56.0638 26.9055 55.9528 27 55.7308 27H54.0568C53.9638 27 53.8888 26.973 53.8318 26.919C53.7778 26.862 53.7508 26.7915 53.7508 26.7075C53.7508 26.5995 53.7943 26.5005 53.8813 26.4105L54.8713 25.362C55.0933 25.128 55.2043 24.912 55.2043 24.714C55.2043 24.591 55.1698 24.498 55.1008 24.435C55.0318 24.369 54.9313 24.336 54.7993 24.336C54.6853 24.336 54.5803 24.3555 54.4843 24.3945C54.3883 24.4335 54.2773 24.4905 54.1513 24.5655C54.1003 24.5955 54.0613 24.6165 54.0343 24.6285C54.0073 24.6405 53.9758 24.6465 53.9398 24.6465C53.8768 24.6465 53.8228 24.618 53.7778 24.561C53.7328 24.501 53.7103 24.432 53.7103 24.354C53.7103 24.297 53.7193 24.2505 53.7373 24.2145C53.7583 24.1755 53.7913 24.141 53.8363 24.111C53.9713 24.012 54.1258 23.934 54.2998 23.877C54.4768 23.817 54.6538 23.787 54.8308 23.787C55.0438 23.787 55.2298 23.823 55.3888 23.895C55.5508 23.967 55.6753 24.0705 55.7623 24.2055C55.8493 24.3375 55.8928 24.4905 55.8928 24.6645C55.8928 24.8475 55.8538 25.017 55.7758 25.173C55.7008 25.329 55.5733 25.503 55.3933 25.695L54.6868 26.4375H55.7308ZM57.763 24.948C57.958 24.948 58.132 24.9915 58.285 25.0785C58.438 25.1625 58.5565 25.281 58.6405 25.434C58.7245 25.587 58.7665 25.764 58.7665 25.965C58.7665 26.175 58.717 26.361 58.618 26.523C58.519 26.685 58.3795 26.811 58.1995 26.901C58.0225 26.991 57.817 27.036 57.583 27.036C57.397 27.036 57.2155 27.0075 57.0385 26.9505C56.8615 26.8935 56.7085 26.814 56.5795 26.712C56.5345 26.679 56.503 26.6445 56.485 26.6085C56.467 26.5695 56.458 26.523 56.458 26.469C56.458 26.391 56.479 26.325 56.521 26.271C56.566 26.214 56.62 26.1855 56.683 26.1855C56.719 26.1855 56.752 26.1915 56.782 26.2035C56.812 26.2125 56.851 26.2305 56.899 26.2575C57.019 26.3295 57.1285 26.3865 57.2275 26.4285C57.3265 26.4675 57.4345 26.487 57.5515 26.487C57.7345 26.487 57.8725 26.445 57.9655 26.361C58.0615 26.277 58.1095 26.1525 58.1095 25.9875C58.1095 25.8315 58.06 25.7085 57.961 25.6185C57.865 25.5285 57.7345 25.4835 57.5695 25.4835C57.4675 25.4835 57.3745 25.497 57.2905 25.524C57.2065 25.548 57.115 25.59 57.016 25.65C56.953 25.686 56.89 25.704 56.827 25.704C56.755 25.704 56.6935 25.683 56.6425 25.641C56.5945 25.596 56.5705 25.5375 56.5705 25.4655V24.156C56.5705 24.051 56.599 23.97 56.656 23.913C56.713 23.856 56.794 23.8275 56.899 23.8275H58.348C58.57 23.8275 58.681 23.916 58.681 24.093C58.681 24.273 58.57 24.363 58.348 24.363H57.2545V25.0695C57.3985 24.9885 57.568 24.948 57.763 24.948ZM59.5027 25.5195C59.3917 25.5195 59.3002 25.4835 59.2282 25.4115C59.1562 25.3365 59.1202 25.2435 59.1202 25.1325C59.1202 25.0215 59.1562 24.93 59.2282 24.858C59.3002 24.783 59.3917 24.7455 59.5027 24.7455C59.6137 24.7455 59.7052 24.783 59.7772 24.858C59.8492 24.93 59.8852 25.0215 59.8852 25.1325C59.8852 25.2435 59.8492 25.3365 59.7772 25.4115C59.7052 25.4835 59.6137 25.5195 59.5027 25.5195ZM59.5027 27.027C59.3917 27.027 59.3002 26.991 59.2282 26.919C59.1562 26.844 59.1202 26.751 59.1202 26.64C59.1202 26.529 59.1562 26.4375 59.2282 26.3655C59.3002 26.2905 59.3917 26.253 59.5027 26.253C59.6137 26.253 59.7052 26.2905 59.7772 26.3655C59.8492 26.4375 59.8852 26.529 59.8852 26.64C59.8852 26.751 59.8492 26.844 59.7772 26.919C59.7052 26.991 59.6137 27.027 59.5027 27.027ZM61.4367 27.0405C61.0527 27.0405 60.7587 26.901 60.5547 26.622C60.3537 26.343 60.2532 25.9395 60.2532 25.4115C60.2532 24.8865 60.3537 24.4845 60.5547 24.2055C60.7587 23.9265 61.0527 23.787 61.4367 23.787C61.8207 23.787 62.1132 23.9265 62.3142 24.2055C62.5182 24.4845 62.6202 24.8865 62.6202 25.4115C62.6202 25.9395 62.5182 26.343 62.3142 26.622C62.1132 26.901 61.8207 27.0405 61.4367 27.0405ZM61.4367 26.505C61.6107 26.505 61.7367 26.418 61.8147 26.244C61.8957 26.07 61.9362 25.7925 61.9362 25.4115C61.9362 25.0275 61.8957 24.75 61.8147 24.579C61.7367 24.408 61.6107 24.3225 61.4367 24.3225C61.2627 24.3225 61.1352 24.4095 61.0542 24.5835C60.9762 24.7545 60.9372 25.0305 60.9372 25.4115C60.9372 25.7925 60.9762 26.07 61.0542 26.244C61.1352 26.418 61.2627 26.505 61.4367 26.505ZM64.1349 27.0405C63.7509 27.0405 63.4569 26.901 63.2529 26.622C63.0519 26.343 62.9514 25.9395 62.9514 25.4115C62.9514 24.8865 63.0519 24.4845 63.2529 24.2055C63.4569 23.9265 63.7509 23.787 64.1349 23.787C64.5189 23.787 64.8114 23.9265 65.0124 24.2055C65.2164 24.4845 65.3184 24.8865 65.3184 25.4115C65.3184 25.9395 65.2164 26.343 65.0124 26.622C64.8114 26.901 64.5189 27.0405 64.1349 27.0405ZM64.1349 26.505C64.3089 26.505 64.4349 26.418 64.5129 26.244C64.5939 26.07 64.6344 25.7925 64.6344 25.4115C64.6344 25.0275 64.5939 24.75 64.5129 24.579C64.4349 24.408 64.3089 24.3225 64.1349 24.3225C63.9609 24.3225 63.8334 24.4095 63.7524 24.5835C63.6744 24.7545 63.6354 25.0305 63.6354 25.4115C63.6354 25.7925 63.6744 26.07 63.7524 26.244C63.8334 26.418 63.9609 26.505 64.1349 26.505Z" fill="#F7FEFF"/>
<path d="M16.3986 14.9842C18.5979 12.3941 21.4272 10.2822 24.6756 8.81142C27.924 7.34059 31.5045 6.55041 35.1465 6.50233C38.7884 6.45426 42.3935 7.14959 45.6892 8.53423C48.9848 9.91885 51.8825 11.9555 54.1662 14.487" stroke="white"/>
<path d="M106.429 37.7369C104.536 41.5482 101.443 44.7901 97.521 47.0599C93.5983 49.3299 89.0193 50.5267 84.3445 50.4995C79.6696 50.4724 75.1085 49.2225 71.219 46.9074C67.3299 44.5924 64.2846 41.3151 62.4473 37.4825" stroke="white"/>
<path d="M18 20H21" stroke="#FF0000" stroke-width="0.3"/>
<path d="M18 27H21" stroke="#FF0000" stroke-width="0.3"/>
<path d="M51.6695 8.97038C51.5759 8.71059 51.7106 8.42409 51.9704 8.33045V8.33045C52.2302 8.23681 52.5167 8.3715 52.6103 8.63128L54.6449 14.2758C54.7385 14.5356 54.6038 14.8221 54.3441 14.9157V14.9157C54.0843 15.0093 53.7978 14.8747 53.7041 14.6149L51.6695 8.97038Z" fill="white"/>
<path d="M47.9927 14.0851C47.7206 14.0381 47.5381 13.7794 47.5851 13.5073V13.5073C47.6321 13.2352 47.8908 13.0527 48.1629 13.0997L54.0754 14.1209C54.3475 14.1679 54.53 14.4266 54.483 14.6987V14.6987C54.436 14.9708 54.1773 15.1533 53.9052 15.1063L47.9927 14.0851Z" fill="white"/>
<path d="M101.318 41.1299C101.077 41.2651 100.773 41.1797 100.637 40.9389V40.9389C100.502 40.6982 100.588 40.3934 100.828 40.2581L106.059 37.3185C106.3 37.1833 106.604 37.2687 106.74 37.5095V37.5095C106.875 37.7502 106.79 38.055 106.549 38.1903L101.318 41.1299Z" fill="white"/>
<path d="M106.97 43.9108C106.969 44.1869 106.744 44.4097 106.468 44.4083V44.4083C106.192 44.4069 105.969 44.1819 105.97 43.9058L106 37.9059C106.002 37.6297 106.227 37.407 106.503 37.4084V37.4084C106.779 37.4097 107.002 37.6347 107 37.9108L106.97 43.9108Z" fill="white"/>
</svg>
